M48
; DRILL file {KiCad 8.0.7} date 2025-02-17T17:04:12-0500
; FORMAT={-:-/ absolute / inch / decimal}
; #@! TF.CreationDate,2025-02-17T17:04:12-05:00
; #@! TF.GenerationSoftware,Kicad,Pcbnew,8.0.7
; #@! TF.FileFunction,Plated,1,2,PTH
FMAT,2
INCH
; #@! TA.AperFunction,Plated,PTH,ComponentDrill
T1C0.0220
; #@! TA.AperFunction,Plated,PTH,ComponentDrill
T2C0.0236
; #@! TA.AperFunction,Plated,PTH,ComponentDrill
T3C0.0276
; #@! TA.AperFunction,Plated,PTH,ComponentDrill
T4C0.0360
; #@! TA.AperFunction,Plated,PTH,ComponentDrill
T5C0.0402
; #@! TA.AperFunction,Plated,PTH,ComponentDrill
T6C0.0472
; #@! TA.AperFunction,Plated,PTH,ComponentDrill
T7C0.0520
; #@! TA.AperFunction,Plated,PTH,ComponentDrill
T8C0.0550
; #@! TA.AperFunction,Plated,PTH,ComponentDrill
T9C0.0630
; #@! TA.AperFunction,Plated,PTH,ComponentDrill
T10C0.0709
%
G90
G05
T1
X5.5074Y-5.2056
X5.5074Y-5.4056
X5.7074Y-5.2056
X5.7074Y-5.4056
T2
X2.2244Y-3.563
X2.2244Y-3.937
X2.2835Y-3.563
X2.2835Y-3.937
T3
X4.685Y-4.6047
X4.685Y-4.8047
X6.022Y-5.2953
X6.222Y-5.2953
T4
X2.1457Y-2.7756
X2.1457Y-2.8756
X3.8567Y-3.9961
X3.8567Y-4.0961
X4.5866Y-3.3449
X4.5866Y-3.4449
X4.5866Y-3.8857
X4.5866Y-3.9857
X4.5888Y-2.7636
X4.5888Y-2.8636
X4.9394Y-3.8189
X5.0394Y-3.8189
X6.5142Y-2.7756
X6.6142Y-2.7756
T5
X5.7087Y-3.0252
X5.7087Y-3.1252
X5.7087Y-3.2252
X5.7087Y-3.3252
X5.7087Y-3.4252
X5.7087Y-3.5252
X5.7087Y-3.6252
X5.7087Y-3.7252
X6.3449Y-2.9583
X6.3449Y-3.8583
X6.4449Y-2.9583
X6.4449Y-3.8583
X6.5449Y-2.9583
X6.5449Y-3.8583
X6.6449Y-2.9583
X6.6449Y-3.8583
X6.7449Y-2.9583
X6.7449Y-3.8583
X6.8449Y-2.9583
X6.8449Y-3.8583
X6.9449Y-2.9583
X6.9449Y-3.8583
X7.0449Y-2.9583
X7.0449Y-3.8583
X7.1449Y-2.9583
X7.1449Y-3.8583
X7.2449Y-2.9583
X7.2449Y-3.8583
X7.3449Y-2.9583
X7.3449Y-3.8583
X7.4449Y-2.9583
X7.4449Y-3.8583
X7.5449Y-2.9583
X7.5449Y-3.8583
X7.6449Y-2.9583
X7.6449Y-3.8583
X7.7449Y-2.9583
X7.7449Y-3.8583
X7.8449Y-2.9583
X7.8449Y-3.8583
X7.9449Y-2.9583
X7.9449Y-3.8583
X8.0449Y-2.9583
X8.0449Y-3.8583
X8.1449Y-2.9583
X8.1449Y-3.8583
X8.2449Y-2.9583
X8.2449Y-3.8583
X8.3449Y-2.9583
X8.3449Y-3.8583
X8.4449Y-2.9583
X8.4449Y-3.8583
T6
X4.685Y-5.0
X4.685Y-5.5709
X4.7835Y-5.5709
X4.8819Y-5.0
X4.8819Y-5.5709
T7
X2.8445Y-2.8937
X3.7303Y-2.8937
T8
X3.2622Y-1.6142
X3.2622Y-1.7772
X3.2709Y-5.1323
X3.2709Y-5.2953
X3.4252Y-1.6142
X3.4252Y-1.7772
X3.4339Y-5.1323
X3.4339Y-5.2953
X3.5882Y-1.6142
X3.5882Y-1.7772
X3.5969Y-5.1323
X3.5969Y-5.2953
X3.7512Y-1.6142
X3.7512Y-1.7772
X3.7598Y-5.1323
X3.7598Y-5.2953
X3.9142Y-1.6142
X3.9142Y-1.7772
X3.9228Y-5.1323
X3.9228Y-5.2953
X4.0772Y-1.6142
X4.0772Y-1.7772
X4.0858Y-5.1323
X4.0858Y-5.2953
X4.2402Y-1.6142
X4.2402Y-1.7772
X4.2488Y-5.1323
X4.2488Y-5.2953
X6.778Y-1.5945
X6.778Y-1.7575
X6.778Y-5.1323
X6.778Y-5.2953
X6.9409Y-1.5945
X6.9409Y-1.7575
X6.9409Y-5.1323
X6.9409Y-5.2953
X7.1039Y-1.5945
X7.1039Y-1.7575
X7.1039Y-5.1323
X7.1039Y-5.2953
X7.2669Y-1.5945
X7.2669Y-1.7575
X7.2669Y-5.1323
X7.2669Y-5.2953
X7.4299Y-1.5945
X7.4299Y-1.7575
X7.4299Y-5.1323
X7.4299Y-5.2953
X7.5929Y-1.5945
X7.5929Y-1.7575
X7.5929Y-5.1323
X7.5929Y-5.2953
X7.7559Y-1.5945
X7.7559Y-1.7575
X7.7559Y-5.1323
X7.7559Y-5.2953
T9
X2.8539Y-4.1142
X3.1539Y-4.1142
T10
G00X4.5984Y-5.2697
M15
G01X4.5984Y-5.2815
M16
G05
G00X4.9685Y-5.2697
M15
G01X4.9685Y-5.2815
M16
G05
M30
