%TF.GenerationSoftware,KiCad,Pcbnew,8.0.7*%
%TF.CreationDate,2025-02-17T19:38:04-05:00*%
%TF.ProjectId,peripheralBoard,70657269-7068-4657-9261-6c426f617264,rev?*%
%TF.SameCoordinates,Original*%
%TF.FileFunction,Legend,Top*%
%TF.FilePolarity,Positive*%
%FSLAX46Y46*%
G04 Gerber Fmt 4.6, Leading zero omitted, Abs format (unit mm)*
G04 Created by KiCad (PCBNEW 8.0.7) date 2025-02-17 19:38:04*
%MOMM*%
%LPD*%
G01*
G04 APERTURE LIST*
%ADD10C,0.150000*%
%ADD11C,0.127000*%
%ADD12C,0.200000*%
%ADD13C,0.508000*%
%ADD14C,0.152400*%
%ADD15C,0.120000*%
G04 APERTURE END LIST*
D10*
X220868786Y-79168327D02*
X221583701Y-79168327D01*
X221583701Y-79168327D02*
X221726684Y-79215988D01*
X221726684Y-79215988D02*
X221822007Y-79311310D01*
X221822007Y-79311310D02*
X221869668Y-79454293D01*
X221869668Y-79454293D02*
X221869668Y-79549615D01*
X220868786Y-78787038D02*
X220868786Y-78167445D01*
X220868786Y-78167445D02*
X221250074Y-78501072D01*
X221250074Y-78501072D02*
X221250074Y-78358089D01*
X221250074Y-78358089D02*
X221297735Y-78262767D01*
X221297735Y-78262767D02*
X221345396Y-78215106D01*
X221345396Y-78215106D02*
X221440718Y-78167445D01*
X221440718Y-78167445D02*
X221679023Y-78167445D01*
X221679023Y-78167445D02*
X221774345Y-78215106D01*
X221774345Y-78215106D02*
X221822007Y-78262767D01*
X221822007Y-78262767D02*
X221869668Y-78358089D01*
X221869668Y-78358089D02*
X221869668Y-78644055D01*
X221869668Y-78644055D02*
X221822007Y-78739377D01*
X221822007Y-78739377D02*
X221774345Y-78787038D01*
X177476781Y-73666666D02*
X176762496Y-73666666D01*
X176762496Y-73666666D02*
X176619639Y-73619047D01*
X176619639Y-73619047D02*
X176524401Y-73523809D01*
X176524401Y-73523809D02*
X176476781Y-73380952D01*
X176476781Y-73380952D02*
X176476781Y-73285714D01*
X176476781Y-74666666D02*
X176476781Y-74095238D01*
X176476781Y-74380952D02*
X177476781Y-74380952D01*
X177476781Y-74380952D02*
X177333924Y-74285714D01*
X177333924Y-74285714D02*
X177238686Y-74190476D01*
X177238686Y-74190476D02*
X177191067Y-74095238D01*
X184347819Y-91326904D02*
X185157342Y-91326904D01*
X185157342Y-91326904D02*
X185252580Y-91279285D01*
X185252580Y-91279285D02*
X185300200Y-91231666D01*
X185300200Y-91231666D02*
X185347819Y-91136428D01*
X185347819Y-91136428D02*
X185347819Y-90945952D01*
X185347819Y-90945952D02*
X185300200Y-90850714D01*
X185300200Y-90850714D02*
X185252580Y-90803095D01*
X185252580Y-90803095D02*
X185157342Y-90755476D01*
X185157342Y-90755476D02*
X184347819Y-90755476D01*
X184443057Y-90326904D02*
X184395438Y-90279285D01*
X184395438Y-90279285D02*
X184347819Y-90184047D01*
X184347819Y-90184047D02*
X184347819Y-89945952D01*
X184347819Y-89945952D02*
X184395438Y-89850714D01*
X184395438Y-89850714D02*
X184443057Y-89803095D01*
X184443057Y-89803095D02*
X184538295Y-89755476D01*
X184538295Y-89755476D02*
X184633533Y-89755476D01*
X184633533Y-89755476D02*
X184776390Y-89803095D01*
X184776390Y-89803095D02*
X185347819Y-90374523D01*
X185347819Y-90374523D02*
X185347819Y-89755476D01*
X189319819Y-78836904D02*
X190129342Y-78836904D01*
X190129342Y-78836904D02*
X190224580Y-78789285D01*
X190224580Y-78789285D02*
X190272200Y-78741666D01*
X190272200Y-78741666D02*
X190319819Y-78646428D01*
X190319819Y-78646428D02*
X190319819Y-78455952D01*
X190319819Y-78455952D02*
X190272200Y-78360714D01*
X190272200Y-78360714D02*
X190224580Y-78313095D01*
X190224580Y-78313095D02*
X190129342Y-78265476D01*
X190129342Y-78265476D02*
X189319819Y-78265476D01*
X190319819Y-77265476D02*
X190319819Y-77836904D01*
X190319819Y-77551190D02*
X189319819Y-77551190D01*
X189319819Y-77551190D02*
X189462676Y-77646428D01*
X189462676Y-77646428D02*
X189557914Y-77741666D01*
X189557914Y-77741666D02*
X189605533Y-77836904D01*
X177034819Y-94116666D02*
X176558628Y-94449999D01*
X177034819Y-94688094D02*
X176034819Y-94688094D01*
X176034819Y-94688094D02*
X176034819Y-94307142D01*
X176034819Y-94307142D02*
X176082438Y-94211904D01*
X176082438Y-94211904D02*
X176130057Y-94164285D01*
X176130057Y-94164285D02*
X176225295Y-94116666D01*
X176225295Y-94116666D02*
X176368152Y-94116666D01*
X176368152Y-94116666D02*
X176463390Y-94164285D01*
X176463390Y-94164285D02*
X176511009Y-94211904D01*
X176511009Y-94211904D02*
X176558628Y-94307142D01*
X176558628Y-94307142D02*
X176558628Y-94688094D01*
X177034819Y-93164285D02*
X177034819Y-93735713D01*
X177034819Y-93449999D02*
X176034819Y-93449999D01*
X176034819Y-93449999D02*
X176177676Y-93545237D01*
X176177676Y-93545237D02*
X176272914Y-93640475D01*
X176272914Y-93640475D02*
X176320533Y-93735713D01*
X206396666Y-88954819D02*
X206396666Y-89669104D01*
X206396666Y-89669104D02*
X206349047Y-89811961D01*
X206349047Y-89811961D02*
X206253809Y-89907200D01*
X206253809Y-89907200D02*
X206110952Y-89954819D01*
X206110952Y-89954819D02*
X206015714Y-89954819D01*
X207301428Y-89288152D02*
X207301428Y-89954819D01*
X207063333Y-88907200D02*
X206825238Y-89621485D01*
X206825238Y-89621485D02*
X207444285Y-89621485D01*
X208333333Y-57854180D02*
X208333333Y-57139895D01*
X208333333Y-57139895D02*
X208380952Y-56997038D01*
X208380952Y-56997038D02*
X208476190Y-56901800D01*
X208476190Y-56901800D02*
X208619047Y-56854180D01*
X208619047Y-56854180D02*
X208714285Y-56854180D01*
X207904761Y-57758942D02*
X207857142Y-57806561D01*
X207857142Y-57806561D02*
X207761904Y-57854180D01*
X207761904Y-57854180D02*
X207523809Y-57854180D01*
X207523809Y-57854180D02*
X207428571Y-57806561D01*
X207428571Y-57806561D02*
X207380952Y-57758942D01*
X207380952Y-57758942D02*
X207333333Y-57663704D01*
X207333333Y-57663704D02*
X207333333Y-57568466D01*
X207333333Y-57568466D02*
X207380952Y-57425609D01*
X207380952Y-57425609D02*
X207952380Y-56854180D01*
X207952380Y-56854180D02*
X207333333Y-56854180D01*
D11*
%TO.C,J3*%
X222700000Y-81962500D02*
X222700000Y-68062500D01*
X222700000Y-68062500D02*
X230300000Y-68062500D01*
X230300000Y-68062500D02*
X230300000Y-81962500D01*
D12*
X224150000Y-83012500D02*
G75*
G02*
X223950000Y-83012500I-100000J0D01*
G01*
X223950000Y-83012500D02*
G75*
G02*
X224150000Y-83012500I100000J0D01*
G01*
D11*
X230300000Y-81962500D02*
X222700000Y-81962500D01*
D13*
%TO.C,J1*%
X181414600Y-86419998D02*
G75*
G02*
X180652600Y-86419998I-381000J0D01*
G01*
X180652600Y-86419998D02*
G75*
G02*
X181414600Y-86419998I381000J0D01*
G01*
D14*
X160534600Y-58592995D02*
X160534600Y-89407005D01*
X160534600Y-89407005D02*
X179608601Y-89407005D01*
X179608601Y-89407005D02*
X179608601Y-87554568D01*
X179608601Y-58592995D02*
X160534600Y-58592995D01*
X179608601Y-60445432D02*
X179608601Y-58592995D01*
X179608601Y-64585431D02*
X179608601Y-62714572D01*
X179608601Y-68725431D02*
X179608601Y-66854571D01*
X179608601Y-72865430D02*
X179608601Y-70994571D01*
X179608601Y-77005429D02*
X179608601Y-75134570D01*
X179608601Y-81145429D02*
X179608601Y-79274569D01*
X179608601Y-85285428D02*
X179608601Y-83414569D01*
D12*
%TO.C,U2*%
X186790000Y-95035000D02*
G75*
G02*
X186590000Y-95035000I-100000J0D01*
G01*
X186590000Y-95035000D02*
G75*
G02*
X186790000Y-95035000I100000J0D01*
G01*
D11*
X185705000Y-93175000D02*
X185705000Y-86825000D01*
X195295000Y-93175000D02*
X195295000Y-86825000D01*
%TO.C,U1*%
X190840000Y-81120000D02*
X190840000Y-65880000D01*
X190840000Y-65880000D02*
X211160000Y-65880000D01*
X211160000Y-65880000D02*
X211160000Y-81120000D01*
X211160000Y-81120000D02*
X190840000Y-81120000D01*
D12*
X191650000Y-81900000D02*
G75*
G02*
X191450000Y-81900000I-100000J0D01*
G01*
X191450000Y-81900000D02*
G75*
G02*
X191650000Y-81900000I100000J0D01*
G01*
D15*
%TO.C,R1*%
X179249359Y-94579905D02*
G75*
G02*
X177800000Y-94482867I-749359J-320095D01*
G01*
D13*
%TO.C,J4*%
X210667000Y-89500000D02*
G75*
G02*
X209905000Y-89500000I-381000J0D01*
G01*
X209905000Y-89500000D02*
G75*
G02*
X210667000Y-89500000I381000J0D01*
G01*
D14*
X203809000Y-90947800D02*
X209651000Y-90947800D01*
X209651000Y-90947800D02*
X209651000Y-88052200D01*
X209651000Y-88052200D02*
X203809000Y-88052200D01*
X203809000Y-88052200D02*
X203809000Y-90947800D01*
D13*
%TO.C,J2*%
X203095000Y-59500000D02*
G75*
G02*
X202333000Y-59500000I-381000J0D01*
G01*
X202333000Y-59500000D02*
G75*
G02*
X203095000Y-59500000I381000J0D01*
G01*
D14*
X209191000Y-58052200D02*
X203349000Y-58052200D01*
X203349000Y-58052200D02*
X203349000Y-60947800D01*
X203349000Y-60947800D02*
X209191000Y-60947800D01*
X209191000Y-60947800D02*
X209191000Y-58052200D01*
%TD*%
M02*
