%TF.GenerationSoftware,KiCad,Pcbnew,8.0.7*%
%TF.CreationDate,2025-02-17T19:38:04-05:00*%
%TF.ProjectId,peripheralBoard,70657269-7068-4657-9261-6c426f617264,rev?*%
%TF.SameCoordinates,Original*%
%TF.FileFunction,Copper,L2,Bot*%
%TF.FilePolarity,Positive*%
%FSLAX46Y46*%
G04 Gerber Fmt 4.6, Leading zero omitted, Abs format (unit mm)*
G04 Created by KiCad (PCBNEW 8.0.7) date 2025-02-17 19:38:04*
%MOMM*%
%LPD*%
G01*
G04 APERTURE LIST*
%TA.AperFunction,ComponentPad*%
%ADD10C,1.200000*%
%TD*%
%TA.AperFunction,ComponentPad*%
%ADD11R,1.200000X1.200000*%
%TD*%
%TA.AperFunction,ComponentPad*%
%ADD12C,1.908000*%
%TD*%
%TA.AperFunction,ComponentPad*%
%ADD13R,1.130000X1.130000*%
%TD*%
%TA.AperFunction,ComponentPad*%
%ADD14C,1.130000*%
%TD*%
%TA.AperFunction,ComponentPad*%
%ADD15R,1.530000X1.530000*%
%TD*%
%TA.AperFunction,ComponentPad*%
%ADD16C,1.530000*%
%TD*%
%TA.AperFunction,ComponentPad*%
%ADD17C,1.400000*%
%TD*%
%TA.AperFunction,ComponentPad*%
%ADD18O,1.400000X1.400000*%
%TD*%
%TA.AperFunction,ComponentPad*%
%ADD19C,1.422400*%
%TD*%
%TA.AperFunction,Conductor*%
%ADD20C,0.200000*%
%TD*%
G04 APERTURE END LIST*
D10*
%TO.P,J3,3,3*%
%TO.N,/A-*%
X224050000Y-76012500D03*
%TO.P,J3,4,4*%
%TO.N,/B+*%
X224050000Y-74012500D03*
%TO.P,J3,5,5*%
%TO.N,unconnected-(J3-Pad5)*%
X224050000Y-72012500D03*
%TO.P,J3,6,6*%
%TO.N,/A+*%
X224050000Y-70012500D03*
%TO.P,J3,2,2*%
%TO.N,unconnected-(J3-Pad2)*%
X224050000Y-78012500D03*
D11*
%TO.P,J3,1,1*%
%TO.N,/B-*%
X224050000Y-80012500D03*
%TD*%
D12*
%TO.P,J1,14,14*%
%TO.N,/step2*%
X174861602Y-61580002D03*
%TO.P,J1,13,13*%
%TO.N,/dir2*%
X174861602Y-65720001D03*
%TO.P,J1,12,12*%
%TO.N,unconnected-(J1-Pad12)*%
X174861602Y-69860001D03*
%TO.P,J1,11,11*%
%TO.N,unconnected-(J1-Pad11)*%
X174861602Y-74000000D03*
%TO.P,J1,10,10*%
%TO.N,/pressureCS2*%
X174861602Y-78139999D03*
%TO.P,J1,9,9*%
%TO.N,/irVout2*%
X174861602Y-82279999D03*
%TO.P,J1,8,8*%
%TO.N,/irVin*%
X174861602Y-86419998D03*
%TO.P,J1,7,7*%
%TO.N,/MOSI*%
X179001599Y-61580002D03*
%TO.P,J1,6,6*%
%TO.N,/MISO*%
X179001599Y-65720001D03*
%TO.P,J1,5,5*%
%TO.N,/SCK*%
X179001599Y-69860001D03*
%TO.P,J1,4,4*%
%TO.N,+12V*%
X179001599Y-74000000D03*
%TO.P,J1,3,3*%
%TO.N,+5V*%
X179001599Y-78139999D03*
%TO.P,J1,2,2*%
%TO.N,GND*%
X179001599Y-82279999D03*
%TO.P,J1,1,1*%
%TO.N,/3V3*%
X179001599Y-86419998D03*
%TD*%
D13*
%TO.P,U2,1,1OUT*%
%TO.N,/pressureCS2*%
X186690000Y-93970000D03*
D14*
%TO.P,U2,2,1IN-*%
%TO.N,/IN-*%
X189230000Y-93970000D03*
%TO.P,U2,3,1IN+*%
%TO.N,GND*%
X191770000Y-93970000D03*
%TO.P,U2,4,GND*%
X194310000Y-93970000D03*
%TO.P,U2,5,2IN+*%
%TO.N,unconnected-(U2-2IN+-Pad5)*%
X194310000Y-86030000D03*
%TO.P,U2,6,2IN-*%
%TO.N,unconnected-(U2-2IN--Pad6)*%
X191770000Y-86030000D03*
%TO.P,U2,7,2OUT*%
%TO.N,unconnected-(U2-2OUT-Pad7)*%
X189230000Y-86030000D03*
%TO.P,U2,8,VCC*%
%TO.N,+5V*%
X186690000Y-86030000D03*
%TD*%
D15*
%TO.P,U1,1,~{ENABLE}*%
%TO.N,unconnected-(U1-~{ENABLE}-Pad1)*%
X192110000Y-79850000D03*
D16*
%TO.P,U1,2,MS1*%
%TO.N,unconnected-(U1-MS1-Pad2)*%
X194650000Y-79850000D03*
%TO.P,U1,3,MS2*%
%TO.N,unconnected-(U1-MS2-Pad3)*%
X197190000Y-79850000D03*
%TO.P,U1,4,MS3*%
%TO.N,unconnected-(U1-MS3-Pad4)*%
X199730000Y-79850000D03*
%TO.P,U1,5,~{RESET}*%
%TO.N,unconnected-(U1-~{RESET}-Pad5)*%
X202270000Y-79850000D03*
%TO.P,U1,6,~{SLEEP}*%
%TO.N,unconnected-(U1-~{SLEEP}-Pad6)*%
X204810000Y-79850000D03*
%TO.P,U1,7,STEP*%
%TO.N,/step2*%
X207350000Y-79850000D03*
%TO.P,U1,8,DIR*%
%TO.N,/dir2*%
X209890000Y-79850000D03*
%TO.P,U1,9,GND*%
%TO.N,GND*%
X209890000Y-67150000D03*
%TO.P,U1,10,VDD*%
%TO.N,+12V*%
X207350000Y-67150000D03*
%TO.P,U1,11,1B*%
%TO.N,/B+*%
X204810000Y-67150000D03*
%TO.P,U1,12,1A*%
%TO.N,/A+*%
X202270000Y-67150000D03*
%TO.P,U1,13,2A*%
%TO.N,/A-*%
X199730000Y-67150000D03*
%TO.P,U1,14,2B*%
%TO.N,/B-*%
X197190000Y-67150000D03*
%TO.P,U1,15,GND*%
%TO.N,GND*%
X194650000Y-67150000D03*
%TO.P,U1,16,VMOT*%
%TO.N,unconnected-(U1-VMOT-Pad16)*%
X192110000Y-67150000D03*
%TD*%
D17*
%TO.P,R1,1*%
%TO.N,/IN-*%
X178500000Y-94900000D03*
D18*
%TO.P,R1,2*%
%TO.N,/pressureCS2*%
X178500000Y-93000000D03*
%TD*%
D19*
%TO.P,J4,1,1*%
%TO.N,/IN-*%
X208000000Y-89500000D03*
%TO.P,J4,2,2*%
%TO.N,GND*%
X205460000Y-89500000D03*
%TD*%
%TO.P,J2,1,1*%
%TO.N,/irVin*%
X205000000Y-59500000D03*
%TO.P,J2,2,2*%
%TO.N,GND*%
X207540000Y-59500000D03*
%TD*%
D20*
%TO.N,+12V*%
X207350000Y-67150000D02*
X200500000Y-74000000D01*
X200500000Y-74000000D02*
X179001599Y-74000000D01*
%TD*%
%TA.AperFunction,Conductor*%
%TO.N,GND*%
G36*
X232942539Y-53520185D02*
G01*
X232988294Y-53572989D01*
X232999500Y-53624500D01*
X232999500Y-96875500D01*
X232979815Y-96942539D01*
X232927011Y-96988294D01*
X232875500Y-96999500D01*
X159624500Y-96999500D01*
X159557461Y-96979815D01*
X159511706Y-96927011D01*
X159500500Y-96875500D01*
X159500500Y-92999999D01*
X177294357Y-92999999D01*
X177294357Y-93000000D01*
X177314884Y-93221535D01*
X177314885Y-93221537D01*
X177375769Y-93435523D01*
X177375775Y-93435538D01*
X177474938Y-93634683D01*
X177474943Y-93634691D01*
X177492487Y-93657923D01*
X177609017Y-93812234D01*
X177609021Y-93812238D01*
X177609026Y-93812243D01*
X177659617Y-93858364D01*
X177695898Y-93918076D01*
X177694137Y-93987923D01*
X177659617Y-94041636D01*
X177609026Y-94087756D01*
X177609021Y-94087761D01*
X177474943Y-94265308D01*
X177474938Y-94265316D01*
X177375775Y-94464461D01*
X177375769Y-94464476D01*
X177314885Y-94678462D01*
X177314884Y-94678464D01*
X177294357Y-94899999D01*
X177294357Y-94900000D01*
X177314884Y-95121535D01*
X177314885Y-95121537D01*
X177375769Y-95335523D01*
X177375775Y-95335538D01*
X177474938Y-95534683D01*
X177474943Y-95534691D01*
X177609020Y-95712238D01*
X177773437Y-95862123D01*
X177773439Y-95862125D01*
X177962595Y-95979245D01*
X177962596Y-95979245D01*
X177962599Y-95979247D01*
X178170060Y-96059618D01*
X178388757Y-96100500D01*
X178388759Y-96100500D01*
X178611241Y-96100500D01*
X178611243Y-96100500D01*
X178829940Y-96059618D01*
X179037401Y-95979247D01*
X179226562Y-95862124D01*
X179390981Y-95712236D01*
X179525058Y-95534689D01*
X179624229Y-95335528D01*
X179685115Y-95121536D01*
X179705643Y-94900000D01*
X179703799Y-94880105D01*
X179685115Y-94678464D01*
X179685114Y-94678462D01*
X179674877Y-94642483D01*
X179624229Y-94464472D01*
X179582029Y-94379723D01*
X179525061Y-94265316D01*
X179525056Y-94265308D01*
X179459708Y-94178774D01*
X179390981Y-94087764D01*
X179340380Y-94041635D01*
X179304101Y-93981927D01*
X179305861Y-93912079D01*
X179340380Y-93858364D01*
X179390981Y-93812236D01*
X179525058Y-93634689D01*
X179624229Y-93435528D01*
X179646534Y-93357135D01*
X185624500Y-93357135D01*
X185624500Y-94582870D01*
X185624501Y-94582876D01*
X185630908Y-94642483D01*
X185681202Y-94777328D01*
X185681206Y-94777335D01*
X185767452Y-94892544D01*
X185767455Y-94892547D01*
X185882664Y-94978793D01*
X185882671Y-94978797D01*
X186017517Y-95029091D01*
X186017516Y-95029091D01*
X186024444Y-95029835D01*
X186077127Y-95035500D01*
X187302872Y-95035499D01*
X187362483Y-95029091D01*
X187497331Y-94978796D01*
X187612546Y-94892546D01*
X187698796Y-94777331D01*
X187749091Y-94642483D01*
X187755500Y-94582873D01*
X187755499Y-93970000D01*
X188159345Y-93970000D01*
X188179917Y-94178876D01*
X188240844Y-94379723D01*
X188339779Y-94564818D01*
X188339783Y-94564825D01*
X188472932Y-94727067D01*
X188635174Y-94860216D01*
X188635181Y-94860220D01*
X188819406Y-94958690D01*
X188820278Y-94959156D01*
X189021126Y-95020083D01*
X189230000Y-95040655D01*
X189438874Y-95020083D01*
X189639722Y-94959156D01*
X189824824Y-94860217D01*
X189987067Y-94727067D01*
X190120217Y-94564824D01*
X190219156Y-94379722D01*
X190280083Y-94178874D01*
X190300655Y-93970000D01*
X190699847Y-93970000D01*
X190720409Y-94178774D01*
X190781309Y-94379534D01*
X190859892Y-94526552D01*
X190859893Y-94526552D01*
X191380000Y-94006445D01*
X191380000Y-94021344D01*
X191406578Y-94120534D01*
X191457923Y-94209465D01*
X191530535Y-94282077D01*
X191619466Y-94333422D01*
X191718656Y-94360000D01*
X191733553Y-94360000D01*
X191213445Y-94880106D01*
X191360465Y-94958690D01*
X191561227Y-95019590D01*
X191561223Y-95019590D01*
X191770000Y-95040152D01*
X191978774Y-95019590D01*
X192179532Y-94958690D01*
X192326553Y-94880105D01*
X191806448Y-94360000D01*
X191821344Y-94360000D01*
X191920534Y-94333422D01*
X192009465Y-94282077D01*
X192082077Y-94209465D01*
X192133422Y-94120534D01*
X192160000Y-94021344D01*
X192160000Y-94006447D01*
X192680105Y-94526552D01*
X192758690Y-94379532D01*
X192819590Y-94178774D01*
X192840152Y-93970000D01*
X193239847Y-93970000D01*
X193260409Y-94178774D01*
X193321309Y-94379534D01*
X193399892Y-94526552D01*
X193399893Y-94526552D01*
X193920000Y-94006445D01*
X193920000Y-94021344D01*
X193946578Y-94120534D01*
X193997923Y-94209465D01*
X194070535Y-94282077D01*
X194159466Y-94333422D01*
X194258656Y-94360000D01*
X194273553Y-94360000D01*
X193753445Y-94880106D01*
X193900465Y-94958690D01*
X194101227Y-95019590D01*
X194101223Y-95019590D01*
X194310000Y-95040152D01*
X194518774Y-95019590D01*
X194719532Y-94958690D01*
X194866553Y-94880105D01*
X194346448Y-94360000D01*
X194361344Y-94360000D01*
X194460534Y-94333422D01*
X194549465Y-94282077D01*
X194622077Y-94209465D01*
X194673422Y-94120534D01*
X194700000Y-94021344D01*
X194700000Y-94006447D01*
X195220105Y-94526552D01*
X195298690Y-94379532D01*
X195359590Y-94178774D01*
X195380152Y-93970000D01*
X195359590Y-93761225D01*
X195298690Y-93560465D01*
X195220106Y-93413445D01*
X194700000Y-93933551D01*
X194700000Y-93918656D01*
X194673422Y-93819466D01*
X194622077Y-93730535D01*
X194549465Y-93657923D01*
X194460534Y-93606578D01*
X194361344Y-93580000D01*
X194346447Y-93580000D01*
X194866552Y-93059893D01*
X194866552Y-93059892D01*
X194719534Y-92981309D01*
X194518772Y-92920409D01*
X194518776Y-92920409D01*
X194310000Y-92899847D01*
X194101225Y-92920409D01*
X193900471Y-92981307D01*
X193753446Y-93059893D01*
X194273554Y-93580000D01*
X194258656Y-93580000D01*
X194159466Y-93606578D01*
X194070535Y-93657923D01*
X193997923Y-93730535D01*
X193946578Y-93819466D01*
X193920000Y-93918656D01*
X193920000Y-93933553D01*
X193399893Y-93413446D01*
X193321307Y-93560471D01*
X193260409Y-93761225D01*
X193239847Y-93970000D01*
X192840152Y-93970000D01*
X192819590Y-93761225D01*
X192758690Y-93560465D01*
X192680106Y-93413445D01*
X192160000Y-93933551D01*
X192160000Y-93918656D01*
X192133422Y-93819466D01*
X192082077Y-93730535D01*
X192009465Y-93657923D01*
X191920534Y-93606578D01*
X191821344Y-93580000D01*
X191806447Y-93580000D01*
X192326552Y-93059893D01*
X192326552Y-93059892D01*
X192179534Y-92981309D01*
X191978772Y-92920409D01*
X191978776Y-92920409D01*
X191770000Y-92899847D01*
X191561225Y-92920409D01*
X191360471Y-92981307D01*
X191213446Y-93059893D01*
X191733554Y-93580000D01*
X191718656Y-93580000D01*
X191619466Y-93606578D01*
X191530535Y-93657923D01*
X191457923Y-93730535D01*
X191406578Y-93819466D01*
X191380000Y-93918656D01*
X191380000Y-93933553D01*
X190859893Y-93413446D01*
X190781307Y-93560471D01*
X190720409Y-93761225D01*
X190699847Y-93970000D01*
X190300655Y-93970000D01*
X190280083Y-93761126D01*
X190219156Y-93560278D01*
X190120217Y-93375176D01*
X190120216Y-93375174D01*
X189987067Y-93212932D01*
X189824825Y-93079783D01*
X189824818Y-93079779D01*
X189639723Y-92980844D01*
X189438876Y-92919917D01*
X189230000Y-92899345D01*
X189021123Y-92919917D01*
X188820276Y-92980844D01*
X188635181Y-93079779D01*
X188635174Y-93079783D01*
X188472932Y-93212932D01*
X188339783Y-93375174D01*
X188339779Y-93375181D01*
X188240844Y-93560276D01*
X188179917Y-93761123D01*
X188159345Y-93970000D01*
X187755499Y-93970000D01*
X187755499Y-93357128D01*
X187749091Y-93297517D01*
X187720752Y-93221537D01*
X187698797Y-93162671D01*
X187698793Y-93162664D01*
X187612547Y-93047455D01*
X187612544Y-93047452D01*
X187497335Y-92961206D01*
X187497328Y-92961202D01*
X187362482Y-92910908D01*
X187362483Y-92910908D01*
X187302883Y-92904501D01*
X187302881Y-92904500D01*
X187302873Y-92904500D01*
X187302864Y-92904500D01*
X186077129Y-92904500D01*
X186077123Y-92904501D01*
X186017516Y-92910908D01*
X185882671Y-92961202D01*
X185882664Y-92961206D01*
X185767455Y-93047452D01*
X185767452Y-93047455D01*
X185681206Y-93162664D01*
X185681202Y-93162671D01*
X185630908Y-93297517D01*
X185624501Y-93357116D01*
X185624501Y-93357123D01*
X185624500Y-93357135D01*
X179646534Y-93357135D01*
X179685115Y-93221536D01*
X179705643Y-93000000D01*
X179685115Y-92778464D01*
X179624229Y-92564472D01*
X179624224Y-92564461D01*
X179525061Y-92365316D01*
X179525056Y-92365308D01*
X179390979Y-92187761D01*
X179226562Y-92037876D01*
X179226560Y-92037874D01*
X179037404Y-91920754D01*
X179037398Y-91920752D01*
X178829940Y-91840382D01*
X178611243Y-91799500D01*
X178388757Y-91799500D01*
X178170060Y-91840382D01*
X178038864Y-91891207D01*
X177962601Y-91920752D01*
X177962595Y-91920754D01*
X177773439Y-92037874D01*
X177773437Y-92037876D01*
X177609020Y-92187761D01*
X177474943Y-92365308D01*
X177474938Y-92365316D01*
X177375775Y-92564461D01*
X177375769Y-92564476D01*
X177314885Y-92778462D01*
X177314884Y-92778464D01*
X177294357Y-92999999D01*
X159500500Y-92999999D01*
X159500500Y-89499998D01*
X204244173Y-89499998D01*
X204244173Y-89500001D01*
X204262643Y-89711120D01*
X204262645Y-89711131D01*
X204317493Y-89915829D01*
X204317497Y-89915838D01*
X204407062Y-90107912D01*
X204407063Y-90107914D01*
X204444733Y-90161712D01*
X204444733Y-90161713D01*
X205011983Y-89594463D01*
X205033958Y-89676473D01*
X205094149Y-89780727D01*
X205179273Y-89865851D01*
X205283527Y-89926042D01*
X205365535Y-89948016D01*
X204798285Y-90515265D01*
X204852087Y-90552937D01*
X205044161Y-90642502D01*
X205044170Y-90642506D01*
X205248868Y-90697354D01*
X205248879Y-90697356D01*
X205459998Y-90715827D01*
X205460002Y-90715827D01*
X205671120Y-90697356D01*
X205671131Y-90697354D01*
X205875829Y-90642506D01*
X205875838Y-90642502D01*
X206067913Y-90552937D01*
X206067917Y-90552935D01*
X206121713Y-90515266D01*
X205554464Y-89948016D01*
X205636473Y-89926042D01*
X205740727Y-89865851D01*
X205825851Y-89780727D01*
X205886042Y-89676473D01*
X205908016Y-89594463D01*
X206475266Y-90161713D01*
X206512935Y-90107917D01*
X206512937Y-90107913D01*
X206602502Y-89915838D01*
X206602505Y-89915830D01*
X206609965Y-89887989D01*
X206646328Y-89828327D01*
X206709174Y-89797796D01*
X206778549Y-89806088D01*
X206832429Y-89850571D01*
X206849515Y-89887982D01*
X206857022Y-89915998D01*
X206857024Y-89916005D01*
X206857026Y-89916009D01*
X206876234Y-89957200D01*
X206946629Y-90108164D01*
X206946631Y-90108168D01*
X207068235Y-90281836D01*
X207068240Y-90281842D01*
X207218157Y-90431759D01*
X207218163Y-90431764D01*
X207391831Y-90553368D01*
X207391833Y-90553369D01*
X207391836Y-90553371D01*
X207583991Y-90642974D01*
X207788787Y-90697849D01*
X207957757Y-90712632D01*
X207999999Y-90716328D01*
X208000000Y-90716328D01*
X208000001Y-90716328D01*
X208035202Y-90713248D01*
X208211213Y-90697849D01*
X208416009Y-90642974D01*
X208608164Y-90553371D01*
X208781841Y-90431761D01*
X208931761Y-90281841D01*
X209053371Y-90108164D01*
X209142974Y-89916009D01*
X209197849Y-89711213D01*
X209216328Y-89500000D01*
X209197849Y-89288787D01*
X209142974Y-89083991D01*
X209053371Y-88891836D01*
X209053369Y-88891833D01*
X209053368Y-88891831D01*
X208931764Y-88718163D01*
X208931759Y-88718157D01*
X208781842Y-88568240D01*
X208781836Y-88568235D01*
X208608168Y-88446631D01*
X208608164Y-88446629D01*
X208416009Y-88357026D01*
X208416005Y-88357025D01*
X208416001Y-88357023D01*
X208211218Y-88302152D01*
X208211208Y-88302150D01*
X208000001Y-88283672D01*
X207999999Y-88283672D01*
X207788791Y-88302150D01*
X207788781Y-88302152D01*
X207583998Y-88357023D01*
X207583989Y-88357027D01*
X207391835Y-88446629D01*
X207391831Y-88446631D01*
X207218163Y-88568235D01*
X207218157Y-88568240D01*
X207068240Y-88718157D01*
X207068235Y-88718163D01*
X206946631Y-88891831D01*
X206946629Y-88891835D01*
X206857027Y-89083989D01*
X206857023Y-89083999D01*
X206849515Y-89112018D01*
X206813149Y-89171677D01*
X206750301Y-89202205D01*
X206680926Y-89193908D01*
X206627049Y-89149421D01*
X206609965Y-89112011D01*
X206602505Y-89084166D01*
X206602502Y-89084161D01*
X206512934Y-88892083D01*
X206475266Y-88838286D01*
X206475265Y-88838285D01*
X205908016Y-89405535D01*
X205886042Y-89323527D01*
X205825851Y-89219273D01*
X205740727Y-89134149D01*
X205636473Y-89073958D01*
X205554463Y-89051983D01*
X206121713Y-88484733D01*
X206067914Y-88447063D01*
X206067912Y-88447062D01*
X205875838Y-88357497D01*
X205875829Y-88357493D01*
X205671131Y-88302645D01*
X205671120Y-88302643D01*
X205460002Y-88284173D01*
X205459998Y-88284173D01*
X205248879Y-88302643D01*
X205248868Y-88302645D01*
X205044170Y-88357493D01*
X205044161Y-88357497D01*
X204852088Y-88447062D01*
X204798286Y-88484733D01*
X205365536Y-89051983D01*
X205283527Y-89073958D01*
X205179273Y-89134149D01*
X205094149Y-89219273D01*
X205033958Y-89323527D01*
X205011983Y-89405536D01*
X204444733Y-88838286D01*
X204407062Y-88892088D01*
X204317497Y-89084161D01*
X204317493Y-89084170D01*
X204262645Y-89288868D01*
X204262643Y-89288879D01*
X204244173Y-89499998D01*
X159500500Y-89499998D01*
X159500500Y-86419991D01*
X173402117Y-86419991D01*
X173402117Y-86420004D01*
X173422020Y-86660213D01*
X173422022Y-86660224D01*
X173481195Y-86893890D01*
X173578023Y-87114637D01*
X173709861Y-87316429D01*
X173709864Y-87316433D01*
X173873122Y-87493778D01*
X173873126Y-87493781D01*
X174063339Y-87641830D01*
X174063341Y-87641831D01*
X174063344Y-87641833D01*
X174186583Y-87708525D01*
X174275334Y-87756555D01*
X174503320Y-87834823D01*
X174741079Y-87874498D01*
X174741080Y-87874498D01*
X174982124Y-87874498D01*
X174982125Y-87874498D01*
X175219884Y-87834823D01*
X175447870Y-87756555D01*
X175659865Y-87641830D01*
X175850084Y-87493776D01*
X176013341Y-87316432D01*
X176145181Y-87114636D01*
X176242008Y-86893892D01*
X176301182Y-86660221D01*
X176321087Y-86419998D01*
X176321087Y-86419991D01*
X177542114Y-86419991D01*
X177542114Y-86420004D01*
X177562017Y-86660213D01*
X177562019Y-86660224D01*
X177621192Y-86893890D01*
X177718020Y-87114637D01*
X177849858Y-87316429D01*
X177849861Y-87316433D01*
X178013119Y-87493778D01*
X178013123Y-87493781D01*
X178203336Y-87641830D01*
X178203338Y-87641831D01*
X178203341Y-87641833D01*
X178326580Y-87708525D01*
X178415331Y-87756555D01*
X178643317Y-87834823D01*
X178881076Y-87874498D01*
X178881077Y-87874498D01*
X179122121Y-87874498D01*
X179122122Y-87874498D01*
X179359881Y-87834823D01*
X179587867Y-87756555D01*
X179799862Y-87641830D01*
X179990081Y-87493776D01*
X180153338Y-87316432D01*
X180285178Y-87114636D01*
X180382005Y-86893892D01*
X180441179Y-86660221D01*
X180461084Y-86419998D01*
X180461084Y-86419991D01*
X180441180Y-86179782D01*
X180441178Y-86179771D01*
X180438300Y-86168406D01*
X180403251Y-86030000D01*
X185619345Y-86030000D01*
X185639917Y-86238876D01*
X185700844Y-86439723D01*
X185799779Y-86624818D01*
X185799783Y-86624825D01*
X185932932Y-86787067D01*
X186095174Y-86920216D01*
X186095181Y-86920220D01*
X186280276Y-87019155D01*
X186280278Y-87019156D01*
X186481126Y-87080083D01*
X186690000Y-87100655D01*
X186898874Y-87080083D01*
X187099722Y-87019156D01*
X187284824Y-86920217D01*
X187447067Y-86787067D01*
X187580217Y-86624824D01*
X187679156Y-86439722D01*
X187740083Y-86238874D01*
X187760655Y-86030000D01*
X188159345Y-86030000D01*
X188179917Y-86238876D01*
X188240844Y-86439723D01*
X188339779Y-86624818D01*
X188339783Y-86624825D01*
X188472932Y-86787067D01*
X188635174Y-86920216D01*
X188635181Y-86920220D01*
X188820276Y-87019155D01*
X188820278Y-87019156D01*
X189021126Y-87080083D01*
X189230000Y-87100655D01*
X189438874Y-87080083D01*
X189639722Y-87019156D01*
X189824824Y-86920217D01*
X189987067Y-86787067D01*
X190120217Y-86624824D01*
X190219156Y-86439722D01*
X190280083Y-86238874D01*
X190300655Y-86030000D01*
X190699345Y-86030000D01*
X190719917Y-86238876D01*
X190780844Y-86439723D01*
X190879779Y-86624818D01*
X190879783Y-86624825D01*
X191012932Y-86787067D01*
X191175174Y-86920216D01*
X191175181Y-86920220D01*
X191360276Y-87019155D01*
X191360278Y-87019156D01*
X191561126Y-87080083D01*
X191770000Y-87100655D01*
X191978874Y-87080083D01*
X192179722Y-87019156D01*
X192364824Y-86920217D01*
X192527067Y-86787067D01*
X192660217Y-86624824D01*
X192759156Y-86439722D01*
X192820083Y-86238874D01*
X192840655Y-86030000D01*
X193239345Y-86030000D01*
X193259917Y-86238876D01*
X193320844Y-86439723D01*
X193419779Y-86624818D01*
X193419783Y-86624825D01*
X193552932Y-86787067D01*
X193715174Y-86920216D01*
X193715181Y-86920220D01*
X193900276Y-87019155D01*
X193900278Y-87019156D01*
X194101126Y-87080083D01*
X194310000Y-87100655D01*
X194518874Y-87080083D01*
X194719722Y-87019156D01*
X194904824Y-86920217D01*
X195067067Y-86787067D01*
X195200217Y-86624824D01*
X195299156Y-86439722D01*
X195360083Y-86238874D01*
X195380655Y-86030000D01*
X195360083Y-85821126D01*
X195299156Y-85620278D01*
X195299155Y-85620276D01*
X195200220Y-85435181D01*
X195200216Y-85435174D01*
X195067067Y-85272932D01*
X194904825Y-85139783D01*
X194904818Y-85139779D01*
X194719723Y-85040844D01*
X194518876Y-84979917D01*
X194310000Y-84959345D01*
X194101123Y-84979917D01*
X193900276Y-85040844D01*
X193715181Y-85139779D01*
X193715174Y-85139783D01*
X193552932Y-85272932D01*
X193419783Y-85435174D01*
X193419779Y-85435181D01*
X193320844Y-85620276D01*
X193259917Y-85821123D01*
X193239345Y-86030000D01*
X192840655Y-86030000D01*
X192820083Y-85821126D01*
X192759156Y-85620278D01*
X192759155Y-85620276D01*
X192660220Y-85435181D01*
X192660216Y-85435174D01*
X192527067Y-85272932D01*
X192364825Y-85139783D01*
X192364818Y-85139779D01*
X192179723Y-85040844D01*
X191978876Y-84979917D01*
X191770000Y-84959345D01*
X191561123Y-84979917D01*
X191360276Y-85040844D01*
X191175181Y-85139779D01*
X191175174Y-85139783D01*
X191012932Y-85272932D01*
X190879783Y-85435174D01*
X190879779Y-85435181D01*
X190780844Y-85620276D01*
X190719917Y-85821123D01*
X190699345Y-86030000D01*
X190300655Y-86030000D01*
X190280083Y-85821126D01*
X190219156Y-85620278D01*
X190219155Y-85620276D01*
X190120220Y-85435181D01*
X190120216Y-85435174D01*
X189987067Y-85272932D01*
X189824825Y-85139783D01*
X189824818Y-85139779D01*
X189639723Y-85040844D01*
X189438876Y-84979917D01*
X189230000Y-84959345D01*
X189021123Y-84979917D01*
X188820276Y-85040844D01*
X188635181Y-85139779D01*
X188635174Y-85139783D01*
X188472932Y-85272932D01*
X188339783Y-85435174D01*
X188339779Y-85435181D01*
X188240844Y-85620276D01*
X188179917Y-85821123D01*
X188159345Y-86030000D01*
X187760655Y-86030000D01*
X187740083Y-85821126D01*
X187679156Y-85620278D01*
X187679155Y-85620276D01*
X187580220Y-85435181D01*
X187580216Y-85435174D01*
X187447067Y-85272932D01*
X187284825Y-85139783D01*
X187284818Y-85139779D01*
X187099723Y-85040844D01*
X186898876Y-84979917D01*
X186690000Y-84959345D01*
X186481123Y-84979917D01*
X186280276Y-85040844D01*
X186095181Y-85139779D01*
X186095174Y-85139783D01*
X185932932Y-85272932D01*
X185799783Y-85435174D01*
X185799779Y-85435181D01*
X185700844Y-85620276D01*
X185639917Y-85821123D01*
X185619345Y-86030000D01*
X180403251Y-86030000D01*
X180382005Y-85946104D01*
X180285178Y-85725360D01*
X180153338Y-85523564D01*
X179990081Y-85346220D01*
X179990080Y-85346219D01*
X179990078Y-85346217D01*
X179990074Y-85346214D01*
X179799865Y-85198168D01*
X179799856Y-85198162D01*
X179587873Y-85083444D01*
X179587870Y-85083443D01*
X179587867Y-85083441D01*
X179587861Y-85083439D01*
X179587859Y-85083438D01*
X179359883Y-85005173D01*
X179201375Y-84978723D01*
X179122122Y-84965498D01*
X178881076Y-84965498D01*
X178821636Y-84975416D01*
X178643314Y-85005173D01*
X178415338Y-85083438D01*
X178415324Y-85083444D01*
X178203341Y-85198162D01*
X178203332Y-85198168D01*
X178013123Y-85346214D01*
X178013119Y-85346217D01*
X177849861Y-85523562D01*
X177849858Y-85523566D01*
X177718020Y-85725358D01*
X177621192Y-85946105D01*
X177562019Y-86179771D01*
X177562017Y-86179782D01*
X177542114Y-86419991D01*
X176321087Y-86419991D01*
X176301183Y-86179782D01*
X176301181Y-86179771D01*
X176298303Y-86168406D01*
X176242008Y-85946104D01*
X176145181Y-85725360D01*
X176013341Y-85523564D01*
X175850084Y-85346220D01*
X175850083Y-85346219D01*
X175850081Y-85346217D01*
X175850077Y-85346214D01*
X175659868Y-85198168D01*
X175659859Y-85198162D01*
X175447876Y-85083444D01*
X175447873Y-85083443D01*
X175447870Y-85083441D01*
X175447864Y-85083439D01*
X175447862Y-85083438D01*
X175219886Y-85005173D01*
X175061378Y-84978723D01*
X174982125Y-84965498D01*
X174741079Y-84965498D01*
X174681639Y-84975416D01*
X174503317Y-85005173D01*
X174275341Y-85083438D01*
X174275327Y-85083444D01*
X174063344Y-85198162D01*
X174063335Y-85198168D01*
X173873126Y-85346214D01*
X173873122Y-85346217D01*
X173709864Y-85523562D01*
X173709861Y-85523566D01*
X173578023Y-85725358D01*
X173481195Y-85946105D01*
X173422022Y-86179771D01*
X173422020Y-86179782D01*
X173402117Y-86419991D01*
X159500500Y-86419991D01*
X159500500Y-82135397D01*
X165315301Y-82135397D01*
X165315301Y-82424602D01*
X165315302Y-82424619D01*
X165353049Y-82711340D01*
X165353050Y-82711345D01*
X165353051Y-82711351D01*
X165364450Y-82753891D01*
X165427905Y-82990712D01*
X165538581Y-83257908D01*
X165538586Y-83257918D01*
X165683192Y-83508385D01*
X165859258Y-83737836D01*
X165859266Y-83737845D01*
X166063756Y-83942335D01*
X166063764Y-83942342D01*
X166293215Y-84118408D01*
X166543682Y-84263014D01*
X166543692Y-84263019D01*
X166691742Y-84324343D01*
X166810887Y-84373695D01*
X167090250Y-84448550D01*
X167376992Y-84486300D01*
X167376999Y-84486300D01*
X167666203Y-84486300D01*
X167666210Y-84486300D01*
X167952952Y-84448550D01*
X168232315Y-84373695D01*
X168499516Y-84263016D01*
X168749986Y-84118408D01*
X168979437Y-83942343D01*
X168979441Y-83942338D01*
X168979446Y-83942335D01*
X169183936Y-83737845D01*
X169183939Y-83737840D01*
X169183944Y-83737836D01*
X169360009Y-83508385D01*
X169504617Y-83257915D01*
X169615296Y-82990714D01*
X169690151Y-82711351D01*
X169727901Y-82424609D01*
X169727901Y-82279992D01*
X173402117Y-82279992D01*
X173402117Y-82280005D01*
X173422020Y-82520214D01*
X173422022Y-82520225D01*
X173481195Y-82753891D01*
X173578023Y-82974638D01*
X173670802Y-83116646D01*
X173709863Y-83176433D01*
X173784875Y-83257918D01*
X173873122Y-83353779D01*
X173873126Y-83353782D01*
X174062797Y-83501409D01*
X174063339Y-83501831D01*
X174063341Y-83501832D01*
X174063344Y-83501834D01*
X174186583Y-83568526D01*
X174275334Y-83616556D01*
X174503320Y-83694824D01*
X174741079Y-83734499D01*
X174741080Y-83734499D01*
X174982124Y-83734499D01*
X174982125Y-83734499D01*
X175219884Y-83694824D01*
X175447870Y-83616556D01*
X175659865Y-83501831D01*
X175850084Y-83353777D01*
X176013341Y-83176433D01*
X176145181Y-82974637D01*
X176242008Y-82753893D01*
X176301182Y-82520222D01*
X176309105Y-82424609D01*
X176321087Y-82280005D01*
X176321087Y-82279993D01*
X177542616Y-82279993D01*
X177542616Y-82280004D01*
X177562514Y-82520136D01*
X177621668Y-82753730D01*
X177718461Y-82974397D01*
X177811396Y-83116645D01*
X178363436Y-82564606D01*
X178382596Y-82610863D01*
X178459038Y-82725267D01*
X178556331Y-82822560D01*
X178670735Y-82899002D01*
X178716990Y-82918161D01*
X178164321Y-83470829D01*
X178164321Y-83470830D01*
X178203609Y-83501409D01*
X178415530Y-83616096D01*
X178415539Y-83616099D01*
X178643437Y-83694337D01*
X178881117Y-83733999D01*
X179122081Y-83733999D01*
X179359760Y-83694337D01*
X179587658Y-83616099D01*
X179587666Y-83616096D01*
X179799590Y-83501408D01*
X179838875Y-83470829D01*
X179838876Y-83470829D01*
X179286207Y-82918161D01*
X179332463Y-82899002D01*
X179446867Y-82822560D01*
X179544160Y-82725267D01*
X179620602Y-82610863D01*
X179639761Y-82564608D01*
X180191799Y-83116646D01*
X180284735Y-82974399D01*
X180381529Y-82753730D01*
X180440683Y-82520136D01*
X180460582Y-82280004D01*
X180460582Y-82279993D01*
X180440683Y-82039861D01*
X180381529Y-81806267D01*
X180284737Y-81585603D01*
X180191799Y-81443350D01*
X179639761Y-81995389D01*
X179620602Y-81949135D01*
X179544160Y-81834731D01*
X179446867Y-81737438D01*
X179332463Y-81660996D01*
X179286207Y-81641836D01*
X179838875Y-81089167D01*
X179799585Y-81058586D01*
X179587667Y-80943901D01*
X179587658Y-80943898D01*
X179359760Y-80865660D01*
X179122081Y-80825999D01*
X178881117Y-80825999D01*
X178643437Y-80865660D01*
X178415539Y-80943898D01*
X178415530Y-80943901D01*
X178203613Y-81058586D01*
X178164321Y-81089167D01*
X178716990Y-81641836D01*
X178670735Y-81660996D01*
X178556331Y-81737438D01*
X178459038Y-81834731D01*
X178382596Y-81949135D01*
X178363436Y-81995390D01*
X177811396Y-81443350D01*
X177718461Y-81585600D01*
X177621668Y-81806267D01*
X177562514Y-82039861D01*
X177542616Y-82279993D01*
X176321087Y-82279993D01*
X176321087Y-82279992D01*
X176301183Y-82039783D01*
X176301181Y-82039772D01*
X176252784Y-81848659D01*
X176242008Y-81806105D01*
X176145181Y-81585361D01*
X176134679Y-81569287D01*
X176079261Y-81484463D01*
X176013341Y-81383565D01*
X175850084Y-81206221D01*
X175850083Y-81206220D01*
X175850081Y-81206218D01*
X175850077Y-81206215D01*
X175659868Y-81058169D01*
X175659859Y-81058163D01*
X175447876Y-80943445D01*
X175447873Y-80943444D01*
X175447870Y-80943442D01*
X175447864Y-80943440D01*
X175447862Y-80943439D01*
X175219886Y-80865174D01*
X175061378Y-80838724D01*
X174982125Y-80825499D01*
X174741079Y-80825499D01*
X174681639Y-80835417D01*
X174503317Y-80865174D01*
X174275341Y-80943439D01*
X174275327Y-80943445D01*
X174063344Y-81058163D01*
X174063335Y-81058169D01*
X173873126Y-81206215D01*
X173873122Y-81206218D01*
X173709864Y-81383563D01*
X173709861Y-81383567D01*
X173578023Y-81585359D01*
X173481195Y-81806106D01*
X173422022Y-82039772D01*
X173422020Y-82039783D01*
X173402117Y-82279992D01*
X169727901Y-82279992D01*
X169727901Y-82135391D01*
X169690151Y-81848649D01*
X169615296Y-81569286D01*
X169538368Y-81383567D01*
X169504620Y-81302091D01*
X169504615Y-81302081D01*
X169360009Y-81051614D01*
X169183943Y-80822163D01*
X169183936Y-80822155D01*
X168979446Y-80617665D01*
X168979437Y-80617657D01*
X168749986Y-80441591D01*
X168499519Y-80296985D01*
X168499509Y-80296980D01*
X168232313Y-80186304D01*
X168092633Y-80148877D01*
X167952952Y-80111450D01*
X167952946Y-80111449D01*
X167952941Y-80111448D01*
X167666220Y-80073701D01*
X167666215Y-80073700D01*
X167666210Y-80073700D01*
X167376992Y-80073700D01*
X167376986Y-80073700D01*
X167376981Y-80073701D01*
X167090260Y-80111448D01*
X167090253Y-80111449D01*
X167090250Y-80111450D01*
X167031211Y-80127269D01*
X166810888Y-80186304D01*
X166543692Y-80296980D01*
X166543682Y-80296985D01*
X166293215Y-80441591D01*
X166063764Y-80617657D01*
X165859258Y-80822163D01*
X165683192Y-81051614D01*
X165538586Y-81302081D01*
X165538581Y-81302091D01*
X165427905Y-81569287D01*
X165353052Y-81848646D01*
X165353049Y-81848659D01*
X165315302Y-82135380D01*
X165315301Y-82135397D01*
X159500500Y-82135397D01*
X159500500Y-78139992D01*
X173402117Y-78139992D01*
X173402117Y-78140005D01*
X173422020Y-78380214D01*
X173422022Y-78380225D01*
X173481195Y-78613891D01*
X173578023Y-78834638D01*
X173671371Y-78977517D01*
X173709863Y-79036433D01*
X173824521Y-79160985D01*
X173873122Y-79213779D01*
X173873126Y-79213782D01*
X174032838Y-79338091D01*
X174063339Y-79361831D01*
X174063341Y-79361832D01*
X174063344Y-79361834D01*
X174068507Y-79364628D01*
X174275334Y-79476556D01*
X174503320Y-79554824D01*
X174741079Y-79594499D01*
X174741080Y-79594499D01*
X174982124Y-79594499D01*
X174982125Y-79594499D01*
X175219884Y-79554824D01*
X175447870Y-79476556D01*
X175659865Y-79361831D01*
X175850084Y-79213777D01*
X176013341Y-79036433D01*
X176145181Y-78834637D01*
X176242008Y-78613893D01*
X176301182Y-78380222D01*
X176301183Y-78380214D01*
X176321087Y-78140005D01*
X176321087Y-78139992D01*
X177542114Y-78139992D01*
X177542114Y-78140005D01*
X177562017Y-78380214D01*
X177562019Y-78380225D01*
X177621192Y-78613891D01*
X177718020Y-78834638D01*
X177811368Y-78977517D01*
X177849860Y-79036433D01*
X177964518Y-79160985D01*
X178013119Y-79213779D01*
X178013123Y-79213782D01*
X178172835Y-79338091D01*
X178203336Y-79361831D01*
X178203338Y-79361832D01*
X178203341Y-79361834D01*
X178208504Y-79364628D01*
X178415331Y-79476556D01*
X178643317Y-79554824D01*
X178881076Y-79594499D01*
X178881077Y-79594499D01*
X179122121Y-79594499D01*
X179122122Y-79594499D01*
X179359881Y-79554824D01*
X179587867Y-79476556D01*
X179799862Y-79361831D01*
X179990081Y-79213777D01*
X180152692Y-79037135D01*
X190844500Y-79037135D01*
X190844500Y-80662870D01*
X190844501Y-80662876D01*
X190850908Y-80722483D01*
X190901202Y-80857328D01*
X190901206Y-80857335D01*
X190987452Y-80972544D01*
X190987455Y-80972547D01*
X191102664Y-81058793D01*
X191102671Y-81058797D01*
X191237517Y-81109091D01*
X191237516Y-81109091D01*
X191244444Y-81109835D01*
X191297127Y-81115500D01*
X192922872Y-81115499D01*
X192982483Y-81109091D01*
X193117331Y-81058796D01*
X193232546Y-80972546D01*
X193318796Y-80857331D01*
X193369091Y-80722483D01*
X193375500Y-80662873D01*
X193375499Y-80629434D01*
X193395182Y-80562398D01*
X193447984Y-80516642D01*
X193517143Y-80506697D01*
X193580699Y-80535720D01*
X193601073Y-80558311D01*
X193676862Y-80666547D01*
X193676868Y-80666555D01*
X193833445Y-80823132D01*
X194014833Y-80950142D01*
X194135572Y-81006443D01*
X194215513Y-81043720D01*
X194215515Y-81043720D01*
X194215520Y-81043723D01*
X194429409Y-81101035D01*
X194586974Y-81114820D01*
X194649998Y-81120334D01*
X194650000Y-81120334D01*
X194650002Y-81120334D01*
X194705276Y-81115498D01*
X194870591Y-81101035D01*
X195084480Y-81043723D01*
X195285167Y-80950142D01*
X195466555Y-80823132D01*
X195623132Y-80666555D01*
X195750142Y-80485167D01*
X195807618Y-80361907D01*
X195853790Y-80309468D01*
X195920983Y-80290316D01*
X195987864Y-80310531D01*
X196032381Y-80361907D01*
X196089858Y-80485167D01*
X196216868Y-80666555D01*
X196373445Y-80823132D01*
X196554833Y-80950142D01*
X196675572Y-81006443D01*
X196755513Y-81043720D01*
X196755515Y-81043720D01*
X196755520Y-81043723D01*
X196969409Y-81101035D01*
X197126974Y-81114820D01*
X197189998Y-81120334D01*
X197190000Y-81120334D01*
X197190002Y-81120334D01*
X197245276Y-81115498D01*
X197410591Y-81101035D01*
X197624480Y-81043723D01*
X197825167Y-80950142D01*
X198006555Y-80823132D01*
X198163132Y-80666555D01*
X198290142Y-80485167D01*
X198347618Y-80361907D01*
X198393790Y-80309468D01*
X198460983Y-80290316D01*
X198527864Y-80310531D01*
X198572381Y-80361907D01*
X198629858Y-80485167D01*
X198756868Y-80666555D01*
X198913445Y-80823132D01*
X199094833Y-80950142D01*
X199215572Y-81006443D01*
X199295513Y-81043720D01*
X199295515Y-81043720D01*
X199295520Y-81043723D01*
X199509409Y-81101035D01*
X199666974Y-81114820D01*
X199729998Y-81120334D01*
X199730000Y-81120334D01*
X199730002Y-81120334D01*
X199785276Y-81115498D01*
X199950591Y-81101035D01*
X200164480Y-81043723D01*
X200365167Y-80950142D01*
X200546555Y-80823132D01*
X200703132Y-80666555D01*
X200830142Y-80485167D01*
X200887618Y-80361907D01*
X200933790Y-80309468D01*
X201000983Y-80290316D01*
X201067864Y-80310531D01*
X201112381Y-80361907D01*
X201169858Y-80485167D01*
X201296868Y-80666555D01*
X201453445Y-80823132D01*
X201634833Y-80950142D01*
X201755572Y-81006443D01*
X201835513Y-81043720D01*
X201835515Y-81043720D01*
X201835520Y-81043723D01*
X202049409Y-81101035D01*
X202206974Y-81114820D01*
X202269998Y-81120334D01*
X202270000Y-81120334D01*
X202270002Y-81120334D01*
X202325276Y-81115498D01*
X202490591Y-81101035D01*
X202704480Y-81043723D01*
X202905167Y-80950142D01*
X203086555Y-80823132D01*
X203243132Y-80666555D01*
X203370142Y-80485167D01*
X203427618Y-80361907D01*
X203473790Y-80309468D01*
X203540983Y-80290316D01*
X203607864Y-80310531D01*
X203652381Y-80361907D01*
X203709858Y-80485167D01*
X203836868Y-80666555D01*
X203993445Y-80823132D01*
X204174833Y-80950142D01*
X204295572Y-81006443D01*
X204375513Y-81043720D01*
X204375515Y-81043720D01*
X204375520Y-81043723D01*
X204589409Y-81101035D01*
X204746974Y-81114820D01*
X204809998Y-81120334D01*
X204810000Y-81120334D01*
X204810002Y-81120334D01*
X204865276Y-81115498D01*
X205030591Y-81101035D01*
X205244480Y-81043723D01*
X205445167Y-80950142D01*
X205626555Y-80823132D01*
X205783132Y-80666555D01*
X205910142Y-80485167D01*
X205967618Y-80361907D01*
X206013790Y-80309468D01*
X206080983Y-80290316D01*
X206147864Y-80310531D01*
X206192381Y-80361907D01*
X206249858Y-80485167D01*
X206376868Y-80666555D01*
X206533445Y-80823132D01*
X206714833Y-80950142D01*
X206835572Y-81006443D01*
X206915513Y-81043720D01*
X206915515Y-81043720D01*
X206915520Y-81043723D01*
X207129409Y-81101035D01*
X207286974Y-81114820D01*
X207349998Y-81120334D01*
X207350000Y-81120334D01*
X207350002Y-81120334D01*
X207405276Y-81115498D01*
X207570591Y-81101035D01*
X207784480Y-81043723D01*
X207985167Y-80950142D01*
X208166555Y-80823132D01*
X208323132Y-80666555D01*
X208450142Y-80485167D01*
X208507618Y-80361907D01*
X208553790Y-80309468D01*
X208620983Y-80290316D01*
X208687864Y-80310531D01*
X208732381Y-80361907D01*
X208789858Y-80485167D01*
X208916868Y-80666555D01*
X209073445Y-80823132D01*
X209254833Y-80950142D01*
X209375572Y-81006443D01*
X209455513Y-81043720D01*
X209455515Y-81043720D01*
X209455520Y-81043723D01*
X209669409Y-81101035D01*
X209826974Y-81114820D01*
X209889998Y-81120334D01*
X209890000Y-81120334D01*
X209890002Y-81120334D01*
X209945276Y-81115498D01*
X210110591Y-81101035D01*
X210324480Y-81043723D01*
X210525167Y-80950142D01*
X210706555Y-80823132D01*
X210863132Y-80666555D01*
X210990142Y-80485167D01*
X211083723Y-80284480D01*
X211141035Y-80070591D01*
X211160334Y-79850000D01*
X211141035Y-79629409D01*
X211083723Y-79415520D01*
X211071574Y-79389467D01*
X210990143Y-79214836D01*
X210990142Y-79214834D01*
X210990142Y-79214833D01*
X210863132Y-79033445D01*
X210706555Y-78876868D01*
X210525167Y-78749858D01*
X210525163Y-78749856D01*
X210324486Y-78656279D01*
X210324475Y-78656275D01*
X210110592Y-78598965D01*
X210110585Y-78598964D01*
X209890002Y-78579666D01*
X209889998Y-78579666D01*
X209669414Y-78598964D01*
X209669407Y-78598965D01*
X209455524Y-78656275D01*
X209455513Y-78656279D01*
X209254836Y-78749856D01*
X209254834Y-78749857D01*
X209073444Y-78876868D01*
X208916868Y-79033444D01*
X208789857Y-79214834D01*
X208789856Y-79214836D01*
X208732382Y-79338091D01*
X208686210Y-79390531D01*
X208619017Y-79409683D01*
X208552135Y-79389467D01*
X208507618Y-79338091D01*
X208450143Y-79214836D01*
X208450142Y-79214834D01*
X208450142Y-79214833D01*
X208323132Y-79033445D01*
X208166555Y-78876868D01*
X207985167Y-78749858D01*
X207985163Y-78749856D01*
X207784486Y-78656279D01*
X207784475Y-78656275D01*
X207570592Y-78598965D01*
X207570585Y-78598964D01*
X207350002Y-78579666D01*
X207349998Y-78579666D01*
X207129414Y-78598964D01*
X207129407Y-78598965D01*
X206915524Y-78656275D01*
X206915513Y-78656279D01*
X206714836Y-78749856D01*
X206714834Y-78749857D01*
X206533444Y-78876868D01*
X206376868Y-79033444D01*
X206249857Y-79214834D01*
X206249856Y-79214836D01*
X206192382Y-79338091D01*
X206146210Y-79390531D01*
X206079017Y-79409683D01*
X206012135Y-79389467D01*
X205967618Y-79338091D01*
X205910143Y-79214836D01*
X205910142Y-79214834D01*
X205910142Y-79214833D01*
X205783132Y-79033445D01*
X205626555Y-78876868D01*
X205445167Y-78749858D01*
X205445163Y-78749856D01*
X205244486Y-78656279D01*
X205244475Y-78656275D01*
X205030592Y-78598965D01*
X205030585Y-78598964D01*
X204810002Y-78579666D01*
X204809998Y-78579666D01*
X204589414Y-78598964D01*
X204589407Y-78598965D01*
X204375524Y-78656275D01*
X204375513Y-78656279D01*
X204174836Y-78749856D01*
X204174834Y-78749857D01*
X203993444Y-78876868D01*
X203836868Y-79033444D01*
X203709857Y-79214834D01*
X203709856Y-79214836D01*
X203652382Y-79338091D01*
X203606210Y-79390531D01*
X203539017Y-79409683D01*
X203472135Y-79389467D01*
X203427618Y-79338091D01*
X203370143Y-79214836D01*
X203370142Y-79214834D01*
X203370142Y-79214833D01*
X203243132Y-79033445D01*
X203086555Y-78876868D01*
X202905167Y-78749858D01*
X202905163Y-78749856D01*
X202704486Y-78656279D01*
X202704475Y-78656275D01*
X202490592Y-78598965D01*
X202490585Y-78598964D01*
X202270002Y-78579666D01*
X202269998Y-78579666D01*
X202049414Y-78598964D01*
X202049407Y-78598965D01*
X201835524Y-78656275D01*
X201835513Y-78656279D01*
X201634836Y-78749856D01*
X201634834Y-78749857D01*
X201453444Y-78876868D01*
X201296868Y-79033444D01*
X201169857Y-79214834D01*
X201169856Y-79214836D01*
X201112382Y-79338091D01*
X201066210Y-79390531D01*
X200999017Y-79409683D01*
X200932135Y-79389467D01*
X200887618Y-79338091D01*
X200830143Y-79214836D01*
X200830142Y-79214834D01*
X200830142Y-79214833D01*
X200703132Y-79033445D01*
X200546555Y-78876868D01*
X200365167Y-78749858D01*
X200365163Y-78749856D01*
X200164486Y-78656279D01*
X200164475Y-78656275D01*
X199950592Y-78598965D01*
X199950585Y-78598964D01*
X199730002Y-78579666D01*
X199729998Y-78579666D01*
X199509414Y-78598964D01*
X199509407Y-78598965D01*
X199295524Y-78656275D01*
X199295513Y-78656279D01*
X199094836Y-78749856D01*
X199094834Y-78749857D01*
X198913444Y-78876868D01*
X198756868Y-79033444D01*
X198629857Y-79214834D01*
X198629856Y-79214836D01*
X198572382Y-79338091D01*
X198526210Y-79390531D01*
X198459017Y-79409683D01*
X198392135Y-79389467D01*
X198347618Y-79338091D01*
X198290143Y-79214836D01*
X198290142Y-79214834D01*
X198290142Y-79214833D01*
X198163132Y-79033445D01*
X198006555Y-78876868D01*
X197825167Y-78749858D01*
X197825163Y-78749856D01*
X197624486Y-78656279D01*
X197624475Y-78656275D01*
X197410592Y-78598965D01*
X197410585Y-78598964D01*
X197190002Y-78579666D01*
X197189998Y-78579666D01*
X196969414Y-78598964D01*
X196969407Y-78598965D01*
X196755524Y-78656275D01*
X196755513Y-78656279D01*
X196554836Y-78749856D01*
X196554834Y-78749857D01*
X196373444Y-78876868D01*
X196216868Y-79033444D01*
X196089857Y-79214834D01*
X196089856Y-79214836D01*
X196032382Y-79338091D01*
X195986210Y-79390531D01*
X195919017Y-79409683D01*
X195852135Y-79389467D01*
X195807618Y-79338091D01*
X195750143Y-79214836D01*
X195750142Y-79214834D01*
X195750142Y-79214833D01*
X195623132Y-79033445D01*
X195466555Y-78876868D01*
X195285167Y-78749858D01*
X195285163Y-78749856D01*
X195084486Y-78656279D01*
X195084475Y-78656275D01*
X194870592Y-78598965D01*
X194870585Y-78598964D01*
X194650002Y-78579666D01*
X194649998Y-78579666D01*
X194429414Y-78598964D01*
X194429407Y-78598965D01*
X194215524Y-78656275D01*
X194215513Y-78656279D01*
X194014836Y-78749856D01*
X194014834Y-78749857D01*
X193833444Y-78876868D01*
X193676868Y-79033444D01*
X193601074Y-79141690D01*
X193546497Y-79185315D01*
X193476998Y-79192507D01*
X193414644Y-79160985D01*
X193379230Y-79100755D01*
X193375499Y-79070566D01*
X193375499Y-79037129D01*
X193375498Y-79037123D01*
X193375497Y-79037116D01*
X193369091Y-78977517D01*
X193364218Y-78964453D01*
X193318797Y-78842671D01*
X193318793Y-78842664D01*
X193232547Y-78727455D01*
X193232544Y-78727452D01*
X193117335Y-78641206D01*
X193117328Y-78641202D01*
X192982482Y-78590908D01*
X192982483Y-78590908D01*
X192922883Y-78584501D01*
X192922881Y-78584500D01*
X192922873Y-78584500D01*
X192922864Y-78584500D01*
X191297129Y-78584500D01*
X191297123Y-78584501D01*
X191237516Y-78590908D01*
X191102671Y-78641202D01*
X191102664Y-78641206D01*
X190987455Y-78727452D01*
X190987452Y-78727455D01*
X190901206Y-78842664D01*
X190901202Y-78842671D01*
X190850908Y-78977517D01*
X190844501Y-79037116D01*
X190844501Y-79037123D01*
X190844500Y-79037135D01*
X180152692Y-79037135D01*
X180153338Y-79036433D01*
X180285178Y-78834637D01*
X180382005Y-78613893D01*
X180441179Y-78380222D01*
X180441180Y-78380214D01*
X180461084Y-78140005D01*
X180461084Y-78139992D01*
X180441180Y-77899783D01*
X180441178Y-77899772D01*
X180382005Y-77666106D01*
X180358821Y-77613252D01*
X180285178Y-77445361D01*
X180153338Y-77243565D01*
X179990081Y-77066221D01*
X179990080Y-77066220D01*
X179990078Y-77066218D01*
X179990074Y-77066215D01*
X179799865Y-76918169D01*
X179799856Y-76918163D01*
X179587873Y-76803445D01*
X179587870Y-76803444D01*
X179587867Y-76803442D01*
X179587861Y-76803440D01*
X179587859Y-76803439D01*
X179359883Y-76725174D01*
X179201375Y-76698724D01*
X179122122Y-76685499D01*
X178881076Y-76685499D01*
X178821636Y-76695417D01*
X178643314Y-76725174D01*
X178415338Y-76803439D01*
X178415324Y-76803445D01*
X178203341Y-76918163D01*
X178203332Y-76918169D01*
X178013123Y-77066215D01*
X178013119Y-77066218D01*
X177849861Y-77243563D01*
X177849858Y-77243567D01*
X177718020Y-77445359D01*
X177621192Y-77666106D01*
X177562019Y-77899772D01*
X177562017Y-77899783D01*
X177542114Y-78139992D01*
X176321087Y-78139992D01*
X176301183Y-77899783D01*
X176301181Y-77899772D01*
X176242008Y-77666106D01*
X176218824Y-77613252D01*
X176145181Y-77445361D01*
X176013341Y-77243565D01*
X175850084Y-77066221D01*
X175850083Y-77066220D01*
X175850081Y-77066218D01*
X175850077Y-77066215D01*
X175659868Y-76918169D01*
X175659859Y-76918163D01*
X175447876Y-76803445D01*
X175447873Y-76803444D01*
X175447870Y-76803442D01*
X175447864Y-76803440D01*
X175447862Y-76803439D01*
X175219886Y-76725174D01*
X175061378Y-76698724D01*
X174982125Y-76685499D01*
X174741079Y-76685499D01*
X174681639Y-76695417D01*
X174503317Y-76725174D01*
X174275341Y-76803439D01*
X174275327Y-76803445D01*
X174063344Y-76918163D01*
X174063335Y-76918169D01*
X173873126Y-77066215D01*
X173873122Y-77066218D01*
X173709864Y-77243563D01*
X173709861Y-77243567D01*
X173578023Y-77445359D01*
X173481195Y-77666106D01*
X173422022Y-77899772D01*
X173422020Y-77899783D01*
X173402117Y-78139992D01*
X159500500Y-78139992D01*
X159500500Y-73999993D01*
X173402117Y-73999993D01*
X173402117Y-74000006D01*
X173422020Y-74240215D01*
X173422022Y-74240226D01*
X173481195Y-74473892D01*
X173578023Y-74694639D01*
X173618819Y-74757081D01*
X173709863Y-74896434D01*
X173826515Y-75023152D01*
X173873122Y-75073780D01*
X173873126Y-75073783D01*
X173946022Y-75130520D01*
X174063339Y-75221832D01*
X174063341Y-75221833D01*
X174063344Y-75221835D01*
X174148499Y-75267918D01*
X174275334Y-75336557D01*
X174503320Y-75414825D01*
X174741079Y-75454500D01*
X174741080Y-75454500D01*
X174982124Y-75454500D01*
X174982125Y-75454500D01*
X175219884Y-75414825D01*
X175447870Y-75336557D01*
X175659865Y-75221832D01*
X175850084Y-75073778D01*
X176013341Y-74896434D01*
X176145181Y-74694638D01*
X176242008Y-74473894D01*
X176301182Y-74240223D01*
X176303224Y-74215582D01*
X176321087Y-74000006D01*
X176321087Y-73999993D01*
X177542114Y-73999993D01*
X177542114Y-74000006D01*
X177562017Y-74240215D01*
X177562019Y-74240226D01*
X177621192Y-74473892D01*
X177718020Y-74694639D01*
X177758816Y-74757081D01*
X177849860Y-74896434D01*
X177966512Y-75023152D01*
X178013119Y-75073780D01*
X178013123Y-75073783D01*
X178086019Y-75130520D01*
X178203336Y-75221832D01*
X178203338Y-75221833D01*
X178203341Y-75221835D01*
X178288496Y-75267918D01*
X178415331Y-75336557D01*
X178643317Y-75414825D01*
X178881076Y-75454500D01*
X178881077Y-75454500D01*
X179122121Y-75454500D01*
X179122122Y-75454500D01*
X179359881Y-75414825D01*
X179587867Y-75336557D01*
X179799862Y-75221832D01*
X179990081Y-75073778D01*
X180153338Y-74896434D01*
X180285178Y-74694638D01*
X180293928Y-74674691D01*
X180338883Y-74621205D01*
X180405619Y-74600514D01*
X180407484Y-74600500D01*
X200413331Y-74600500D01*
X200413347Y-74600501D01*
X200420943Y-74600501D01*
X200579054Y-74600501D01*
X200579057Y-74600501D01*
X200731785Y-74559577D01*
X200781904Y-74530639D01*
X200868716Y-74480520D01*
X200980520Y-74368716D01*
X200980520Y-74368714D01*
X200990728Y-74358507D01*
X200990730Y-74358504D01*
X205336734Y-70012499D01*
X222944785Y-70012499D01*
X222944785Y-70012500D01*
X222963602Y-70215582D01*
X223019417Y-70411747D01*
X223019422Y-70411760D01*
X223110327Y-70594321D01*
X223233237Y-70757081D01*
X223362898Y-70875282D01*
X223383959Y-70894481D01*
X223404294Y-70907072D01*
X223404296Y-70907073D01*
X223450931Y-70959101D01*
X223462035Y-71028083D01*
X223434082Y-71092117D01*
X223404296Y-71117927D01*
X223383957Y-71130520D01*
X223233237Y-71267918D01*
X223110327Y-71430678D01*
X223019422Y-71613239D01*
X223019417Y-71613252D01*
X222963602Y-71809417D01*
X222944785Y-72012499D01*
X222944785Y-72012500D01*
X222963602Y-72215582D01*
X223019417Y-72411747D01*
X223019422Y-72411760D01*
X223110327Y-72594321D01*
X223233237Y-72757081D01*
X223362898Y-72875282D01*
X223383959Y-72894481D01*
X223404294Y-72907072D01*
X223404296Y-72907073D01*
X223450931Y-72959101D01*
X223462035Y-73028083D01*
X223434082Y-73092117D01*
X223404296Y-73117927D01*
X223383957Y-73130520D01*
X223233237Y-73267918D01*
X223110327Y-73430678D01*
X223019422Y-73613239D01*
X223019417Y-73613252D01*
X222963602Y-73809417D01*
X222944785Y-74012499D01*
X222944785Y-74012500D01*
X222963602Y-74215582D01*
X223019417Y-74411747D01*
X223019422Y-74411760D01*
X223110327Y-74594321D01*
X223233237Y-74757081D01*
X223362898Y-74875282D01*
X223383959Y-74894481D01*
X223404294Y-74907072D01*
X223404296Y-74907073D01*
X223450931Y-74959101D01*
X223462035Y-75028083D01*
X223434082Y-75092117D01*
X223404296Y-75117927D01*
X223383957Y-75130520D01*
X223233237Y-75267918D01*
X223110327Y-75430678D01*
X223019422Y-75613239D01*
X223019417Y-75613252D01*
X222963602Y-75809417D01*
X222944785Y-76012499D01*
X222944785Y-76012500D01*
X222963602Y-76215582D01*
X223019417Y-76411747D01*
X223019422Y-76411760D01*
X223110327Y-76594321D01*
X223233237Y-76757081D01*
X223362898Y-76875282D01*
X223383959Y-76894481D01*
X223404294Y-76907072D01*
X223404296Y-76907073D01*
X223450931Y-76959101D01*
X223462035Y-77028083D01*
X223434082Y-77092117D01*
X223404296Y-77117927D01*
X223383957Y-77130520D01*
X223233237Y-77267918D01*
X223110327Y-77430678D01*
X223019422Y-77613239D01*
X223019417Y-77613252D01*
X222963602Y-77809417D01*
X222944785Y-78012499D01*
X222944785Y-78012500D01*
X222963602Y-78215582D01*
X223019417Y-78411747D01*
X223019422Y-78411760D01*
X223103030Y-78579666D01*
X223110327Y-78594321D01*
X223233236Y-78757079D01*
X223240448Y-78763654D01*
X223276729Y-78823364D01*
X223274969Y-78893212D01*
X223235726Y-78951020D01*
X223214729Y-78963126D01*
X223215454Y-78964453D01*
X223207664Y-78968706D01*
X223092455Y-79054952D01*
X223092452Y-79054955D01*
X223006206Y-79170164D01*
X223006202Y-79170171D01*
X222955908Y-79305017D01*
X222949800Y-79361834D01*
X222949501Y-79364623D01*
X222949500Y-79364635D01*
X222949500Y-80660370D01*
X222949501Y-80660376D01*
X222955908Y-80719983D01*
X223006202Y-80854828D01*
X223006206Y-80854835D01*
X223092452Y-80970044D01*
X223092455Y-80970047D01*
X223207664Y-81056293D01*
X223207671Y-81056297D01*
X223342517Y-81106591D01*
X223342516Y-81106591D01*
X223349444Y-81107335D01*
X223402127Y-81113000D01*
X224697872Y-81112999D01*
X224757483Y-81106591D01*
X224892331Y-81056296D01*
X225007546Y-80970046D01*
X225093796Y-80854831D01*
X225144091Y-80719983D01*
X225150500Y-80660373D01*
X225150499Y-79364628D01*
X225144091Y-79305017D01*
X225110061Y-79213779D01*
X225093797Y-79170171D01*
X225093793Y-79170164D01*
X225007547Y-79054955D01*
X225007544Y-79054952D01*
X224892335Y-78968706D01*
X224884546Y-78964453D01*
X224886238Y-78961352D01*
X224843828Y-78929610D01*
X224819406Y-78864148D01*
X224834252Y-78795874D01*
X224859552Y-78763653D01*
X224866764Y-78757079D01*
X224989673Y-78594321D01*
X225080582Y-78411750D01*
X225136397Y-78215583D01*
X225155215Y-78012500D01*
X225144770Y-77899783D01*
X225136397Y-77809417D01*
X225095621Y-77666106D01*
X225080582Y-77613250D01*
X224989673Y-77430679D01*
X224866764Y-77267921D01*
X224866762Y-77267918D01*
X224716042Y-77130519D01*
X224704723Y-77123511D01*
X224695704Y-77117926D01*
X224649069Y-77065901D01*
X224637964Y-76996919D01*
X224665916Y-76932885D01*
X224695703Y-76907073D01*
X224716041Y-76894481D01*
X224815906Y-76803442D01*
X224866762Y-76757081D01*
X224866764Y-76757079D01*
X224989673Y-76594321D01*
X225080582Y-76411750D01*
X225136397Y-76215583D01*
X225155215Y-76012500D01*
X225136397Y-75809417D01*
X225080582Y-75613250D01*
X224989673Y-75430679D01*
X224866764Y-75267921D01*
X224866762Y-75267918D01*
X224716042Y-75130519D01*
X224704723Y-75123511D01*
X224695704Y-75117926D01*
X224649069Y-75065901D01*
X224637964Y-74996919D01*
X224665916Y-74932885D01*
X224695703Y-74907073D01*
X224716041Y-74894481D01*
X224866764Y-74757079D01*
X224989673Y-74594321D01*
X225080582Y-74411750D01*
X225136397Y-74215583D01*
X225155215Y-74012500D01*
X225136397Y-73809417D01*
X225080582Y-73613250D01*
X224989673Y-73430679D01*
X224866764Y-73267921D01*
X224866762Y-73267918D01*
X224716042Y-73130519D01*
X224704723Y-73123511D01*
X224695704Y-73117926D01*
X224649069Y-73065901D01*
X224637964Y-72996919D01*
X224665916Y-72932885D01*
X224695703Y-72907073D01*
X224716041Y-72894481D01*
X224843628Y-72778170D01*
X224866762Y-72757081D01*
X224866764Y-72757079D01*
X224989673Y-72594321D01*
X225080582Y-72411750D01*
X225136397Y-72215583D01*
X225155215Y-72012500D01*
X225136397Y-71809417D01*
X225080582Y-71613250D01*
X224989673Y-71430679D01*
X224901940Y-71314501D01*
X224866762Y-71267918D01*
X224716042Y-71130519D01*
X224704723Y-71123511D01*
X224695704Y-71117926D01*
X224649069Y-71065901D01*
X224637964Y-70996919D01*
X224665916Y-70932885D01*
X224695703Y-70907073D01*
X224716041Y-70894481D01*
X224866764Y-70757079D01*
X224989673Y-70594321D01*
X225080582Y-70411750D01*
X225136397Y-70215583D01*
X225155215Y-70012500D01*
X225136397Y-69809417D01*
X225080582Y-69613250D01*
X224989673Y-69430679D01*
X224866764Y-69267921D01*
X224866762Y-69267918D01*
X224716041Y-69130519D01*
X224716039Y-69130517D01*
X224542642Y-69023155D01*
X224542635Y-69023151D01*
X224388824Y-68963565D01*
X224352456Y-68949476D01*
X224151976Y-68912000D01*
X223948024Y-68912000D01*
X223747544Y-68949476D01*
X223747541Y-68949476D01*
X223747541Y-68949477D01*
X223557364Y-69023151D01*
X223557357Y-69023155D01*
X223383960Y-69130517D01*
X223383958Y-69130519D01*
X223233237Y-69267918D01*
X223110327Y-69430678D01*
X223019422Y-69613239D01*
X223019417Y-69613252D01*
X222963602Y-69809417D01*
X222944785Y-70012499D01*
X205336734Y-70012499D01*
X206935872Y-68413361D01*
X206997193Y-68379878D01*
X207055646Y-68381270D01*
X207129401Y-68401033D01*
X207129402Y-68401033D01*
X207129409Y-68401035D01*
X207317148Y-68417459D01*
X207349998Y-68420334D01*
X207350000Y-68420334D01*
X207350002Y-68420334D01*
X207405147Y-68415509D01*
X207570591Y-68401035D01*
X207784480Y-68343723D01*
X207985167Y-68250142D01*
X208166555Y-68123132D01*
X208323132Y-67966555D01*
X208450142Y-67785167D01*
X208507895Y-67661312D01*
X208554064Y-67608878D01*
X208621258Y-67589725D01*
X208688139Y-67609940D01*
X208732657Y-67661316D01*
X208790293Y-67784916D01*
X208790295Y-67784920D01*
X208836103Y-67850341D01*
X208836104Y-67850341D01*
X209398871Y-67287574D01*
X209414755Y-67346853D01*
X209481898Y-67463147D01*
X209576853Y-67558102D01*
X209693147Y-67625245D01*
X209752425Y-67641128D01*
X209189657Y-68203894D01*
X209255084Y-68249706D01*
X209455690Y-68343250D01*
X209455699Y-68343254D01*
X209669490Y-68400538D01*
X209669500Y-68400540D01*
X209889999Y-68419832D01*
X209890001Y-68419832D01*
X210110499Y-68400540D01*
X210110509Y-68400538D01*
X210324300Y-68343254D01*
X210324314Y-68343249D01*
X210524911Y-68249709D01*
X210524919Y-68249705D01*
X210590341Y-68203895D01*
X210027574Y-67641128D01*
X210086853Y-67625245D01*
X210203147Y-67558102D01*
X210298102Y-67463147D01*
X210365245Y-67346853D01*
X210381128Y-67287574D01*
X210943895Y-67850341D01*
X210989705Y-67784919D01*
X210989709Y-67784911D01*
X211083249Y-67584314D01*
X211083254Y-67584300D01*
X211140538Y-67370509D01*
X211140540Y-67370499D01*
X211159832Y-67150000D01*
X211159832Y-67149999D01*
X211140540Y-66929500D01*
X211140538Y-66929490D01*
X211083254Y-66715699D01*
X211083250Y-66715690D01*
X210989706Y-66515084D01*
X210943894Y-66449657D01*
X210381128Y-67012424D01*
X210365245Y-66953147D01*
X210298102Y-66836853D01*
X210203147Y-66741898D01*
X210086853Y-66674755D01*
X210027574Y-66658871D01*
X210590341Y-66096104D01*
X210590341Y-66096103D01*
X210524920Y-66050295D01*
X210524916Y-66050293D01*
X210324309Y-65956749D01*
X210324300Y-65956745D01*
X210110509Y-65899461D01*
X210110499Y-65899459D01*
X209890001Y-65880168D01*
X209889999Y-65880168D01*
X209669500Y-65899459D01*
X209669490Y-65899461D01*
X209455699Y-65956745D01*
X209455690Y-65956749D01*
X209255080Y-66050295D01*
X209189658Y-66096103D01*
X209189657Y-66096104D01*
X209752425Y-66658871D01*
X209693147Y-66674755D01*
X209576853Y-66741898D01*
X209481898Y-66836853D01*
X209414755Y-66953147D01*
X209398871Y-67012424D01*
X208836104Y-66449657D01*
X208836103Y-66449658D01*
X208790294Y-66515080D01*
X208732657Y-66638683D01*
X208686484Y-66691122D01*
X208619290Y-66710274D01*
X208552409Y-66690058D01*
X208507893Y-66638682D01*
X208450142Y-66514833D01*
X208323132Y-66333445D01*
X208166555Y-66176868D01*
X207985167Y-66049858D01*
X207985163Y-66049856D01*
X207784486Y-65956279D01*
X207784475Y-65956275D01*
X207570592Y-65898965D01*
X207570585Y-65898964D01*
X207350002Y-65879666D01*
X207349998Y-65879666D01*
X207129414Y-65898964D01*
X207129407Y-65898965D01*
X206915524Y-65956275D01*
X206915513Y-65956279D01*
X206714836Y-66049856D01*
X206714834Y-66049857D01*
X206533444Y-66176868D01*
X206376868Y-66333444D01*
X206249857Y-66514834D01*
X206249856Y-66514836D01*
X206192382Y-66638091D01*
X206146210Y-66690531D01*
X206079017Y-66709683D01*
X206012135Y-66689467D01*
X205967618Y-66638091D01*
X205910143Y-66514836D01*
X205910142Y-66514834D01*
X205910142Y-66514833D01*
X205783132Y-66333445D01*
X205626555Y-66176868D01*
X205445167Y-66049858D01*
X205445163Y-66049856D01*
X205244486Y-65956279D01*
X205244475Y-65956275D01*
X205030592Y-65898965D01*
X205030585Y-65898964D01*
X204810002Y-65879666D01*
X204809998Y-65879666D01*
X204589414Y-65898964D01*
X204589407Y-65898965D01*
X204375524Y-65956275D01*
X204375513Y-65956279D01*
X204174836Y-66049856D01*
X204174834Y-66049857D01*
X203993444Y-66176868D01*
X203836868Y-66333444D01*
X203709857Y-66514834D01*
X203709856Y-66514836D01*
X203652382Y-66638091D01*
X203606210Y-66690531D01*
X203539017Y-66709683D01*
X203472135Y-66689467D01*
X203427618Y-66638091D01*
X203370143Y-66514836D01*
X203370142Y-66514834D01*
X203370142Y-66514833D01*
X203243132Y-66333445D01*
X203086555Y-66176868D01*
X202905167Y-66049858D01*
X202905163Y-66049856D01*
X202704486Y-65956279D01*
X202704475Y-65956275D01*
X202490592Y-65898965D01*
X202490585Y-65898964D01*
X202270002Y-65879666D01*
X202269998Y-65879666D01*
X202049414Y-65898964D01*
X202049407Y-65898965D01*
X201835524Y-65956275D01*
X201835513Y-65956279D01*
X201634836Y-66049856D01*
X201634834Y-66049857D01*
X201453444Y-66176868D01*
X201296868Y-66333444D01*
X201169857Y-66514834D01*
X201169856Y-66514836D01*
X201112382Y-66638091D01*
X201066210Y-66690531D01*
X200999017Y-66709683D01*
X200932135Y-66689467D01*
X200887618Y-66638091D01*
X200830143Y-66514836D01*
X200830142Y-66514834D01*
X200830142Y-66514833D01*
X200703132Y-66333445D01*
X200546555Y-66176868D01*
X200365167Y-66049858D01*
X200365163Y-66049856D01*
X200164486Y-65956279D01*
X200164475Y-65956275D01*
X199950592Y-65898965D01*
X199950585Y-65898964D01*
X199730002Y-65879666D01*
X199729998Y-65879666D01*
X199509414Y-65898964D01*
X199509407Y-65898965D01*
X199295524Y-65956275D01*
X199295513Y-65956279D01*
X199094836Y-66049856D01*
X199094834Y-66049857D01*
X198913444Y-66176868D01*
X198756868Y-66333444D01*
X198629857Y-66514834D01*
X198629856Y-66514836D01*
X198572382Y-66638091D01*
X198526210Y-66690531D01*
X198459017Y-66709683D01*
X198392135Y-66689467D01*
X198347618Y-66638091D01*
X198290143Y-66514836D01*
X198290142Y-66514834D01*
X198290142Y-66514833D01*
X198163132Y-66333445D01*
X198006555Y-66176868D01*
X197825167Y-66049858D01*
X197825163Y-66049856D01*
X197624486Y-65956279D01*
X197624475Y-65956275D01*
X197410592Y-65898965D01*
X197410585Y-65898964D01*
X197190002Y-65879666D01*
X197189998Y-65879666D01*
X196969414Y-65898964D01*
X196969407Y-65898965D01*
X196755524Y-65956275D01*
X196755513Y-65956279D01*
X196554836Y-66049856D01*
X196554834Y-66049857D01*
X196373444Y-66176868D01*
X196216868Y-66333444D01*
X196089857Y-66514833D01*
X196032106Y-66638683D01*
X195985934Y-66691122D01*
X195918740Y-66710274D01*
X195851859Y-66690058D01*
X195807342Y-66638683D01*
X195749707Y-66515084D01*
X195703894Y-66449657D01*
X195141128Y-67012424D01*
X195125245Y-66953147D01*
X195058102Y-66836853D01*
X194963147Y-66741898D01*
X194846853Y-66674755D01*
X194787574Y-66658871D01*
X195350341Y-66096104D01*
X195350341Y-66096103D01*
X195284920Y-66050295D01*
X195284916Y-66050293D01*
X195084309Y-65956749D01*
X195084300Y-65956745D01*
X194870509Y-65899461D01*
X194870499Y-65899459D01*
X194650001Y-65880168D01*
X194649999Y-65880168D01*
X194429500Y-65899459D01*
X194429490Y-65899461D01*
X194215699Y-65956745D01*
X194215690Y-65956749D01*
X194015080Y-66050295D01*
X193949658Y-66096103D01*
X193949657Y-66096104D01*
X194512425Y-66658871D01*
X194453147Y-66674755D01*
X194336853Y-66741898D01*
X194241898Y-66836853D01*
X194174755Y-66953147D01*
X194158871Y-67012424D01*
X193596104Y-66449657D01*
X193596103Y-66449658D01*
X193550294Y-66515080D01*
X193492657Y-66638683D01*
X193446484Y-66691122D01*
X193379290Y-66710274D01*
X193312409Y-66690058D01*
X193267893Y-66638682D01*
X193210142Y-66514833D01*
X193083132Y-66333445D01*
X192926555Y-66176868D01*
X192745167Y-66049858D01*
X192745163Y-66049856D01*
X192544486Y-65956279D01*
X192544475Y-65956275D01*
X192330592Y-65898965D01*
X192330585Y-65898964D01*
X192110002Y-65879666D01*
X192109998Y-65879666D01*
X191889414Y-65898964D01*
X191889407Y-65898965D01*
X191675524Y-65956275D01*
X191675513Y-65956279D01*
X191474836Y-66049856D01*
X191474834Y-66049857D01*
X191293444Y-66176868D01*
X191136868Y-66333444D01*
X191009857Y-66514834D01*
X191009856Y-66514836D01*
X190916279Y-66715513D01*
X190916275Y-66715524D01*
X190858965Y-66929407D01*
X190858964Y-66929414D01*
X190839666Y-67149998D01*
X190839666Y-67150001D01*
X190858964Y-67370585D01*
X190858965Y-67370592D01*
X190916275Y-67584475D01*
X190916279Y-67584486D01*
X191009741Y-67784916D01*
X191009858Y-67785167D01*
X191136868Y-67966555D01*
X191293445Y-68123132D01*
X191474833Y-68250142D01*
X191558296Y-68289061D01*
X191675513Y-68343720D01*
X191675515Y-68343720D01*
X191675520Y-68343723D01*
X191889409Y-68401035D01*
X192046974Y-68414820D01*
X192109998Y-68420334D01*
X192110000Y-68420334D01*
X192110002Y-68420334D01*
X192165147Y-68415509D01*
X192330591Y-68401035D01*
X192544480Y-68343723D01*
X192745167Y-68250142D01*
X192926555Y-68123132D01*
X193083132Y-67966555D01*
X193210142Y-67785167D01*
X193267895Y-67661312D01*
X193314064Y-67608878D01*
X193381258Y-67589725D01*
X193448139Y-67609940D01*
X193492657Y-67661316D01*
X193550293Y-67784916D01*
X193550295Y-67784920D01*
X193596103Y-67850341D01*
X193596104Y-67850341D01*
X194158871Y-67287574D01*
X194174755Y-67346853D01*
X194241898Y-67463147D01*
X194336853Y-67558102D01*
X194453147Y-67625245D01*
X194512425Y-67641128D01*
X193949657Y-68203894D01*
X194015084Y-68249706D01*
X194215690Y-68343250D01*
X194215699Y-68343254D01*
X194429490Y-68400538D01*
X194429500Y-68400540D01*
X194649999Y-68419832D01*
X194650001Y-68419832D01*
X194870499Y-68400540D01*
X194870509Y-68400538D01*
X195084300Y-68343254D01*
X195084314Y-68343249D01*
X195284911Y-68249709D01*
X195284919Y-68249705D01*
X195350341Y-68203895D01*
X194787574Y-67641128D01*
X194846853Y-67625245D01*
X194963147Y-67558102D01*
X195058102Y-67463147D01*
X195125245Y-67346853D01*
X195141128Y-67287574D01*
X195703895Y-67850341D01*
X195749705Y-67784919D01*
X195749709Y-67784911D01*
X195807342Y-67661317D01*
X195853514Y-67608877D01*
X195920707Y-67589725D01*
X195987588Y-67609940D01*
X196032106Y-67661317D01*
X196089741Y-67784916D01*
X196089858Y-67785167D01*
X196216868Y-67966555D01*
X196373445Y-68123132D01*
X196554833Y-68250142D01*
X196638296Y-68289061D01*
X196755513Y-68343720D01*
X196755515Y-68343720D01*
X196755520Y-68343723D01*
X196969409Y-68401035D01*
X197126974Y-68414820D01*
X197189998Y-68420334D01*
X197190000Y-68420334D01*
X197190002Y-68420334D01*
X197245147Y-68415509D01*
X197410591Y-68401035D01*
X197624480Y-68343723D01*
X197825167Y-68250142D01*
X198006555Y-68123132D01*
X198163132Y-67966555D01*
X198290142Y-67785167D01*
X198347618Y-67661907D01*
X198393790Y-67609468D01*
X198460983Y-67590316D01*
X198527864Y-67610531D01*
X198572382Y-67661908D01*
X198629738Y-67784911D01*
X198629858Y-67785167D01*
X198756868Y-67966555D01*
X198913445Y-68123132D01*
X199094833Y-68250142D01*
X199178296Y-68289061D01*
X199295513Y-68343720D01*
X199295515Y-68343720D01*
X199295520Y-68343723D01*
X199509409Y-68401035D01*
X199666974Y-68414820D01*
X199729998Y-68420334D01*
X199730000Y-68420334D01*
X199730002Y-68420334D01*
X199785147Y-68415509D01*
X199950591Y-68401035D01*
X200164480Y-68343723D01*
X200365167Y-68250142D01*
X200546555Y-68123132D01*
X200703132Y-67966555D01*
X200830142Y-67785167D01*
X200887618Y-67661907D01*
X200933790Y-67609468D01*
X201000983Y-67590316D01*
X201067864Y-67610531D01*
X201112382Y-67661908D01*
X201169738Y-67784911D01*
X201169858Y-67785167D01*
X201296868Y-67966555D01*
X201453445Y-68123132D01*
X201634833Y-68250142D01*
X201718296Y-68289061D01*
X201835513Y-68343720D01*
X201835515Y-68343720D01*
X201835520Y-68343723D01*
X202049409Y-68401035D01*
X202206974Y-68414820D01*
X202269998Y-68420334D01*
X202270000Y-68420334D01*
X202270002Y-68420334D01*
X202325147Y-68415509D01*
X202490591Y-68401035D01*
X202704480Y-68343723D01*
X202905167Y-68250142D01*
X203086555Y-68123132D01*
X203243132Y-67966555D01*
X203370142Y-67785167D01*
X203427618Y-67661907D01*
X203473790Y-67609468D01*
X203540983Y-67590316D01*
X203607864Y-67610531D01*
X203652382Y-67661908D01*
X203709738Y-67784911D01*
X203709858Y-67785167D01*
X203836868Y-67966555D01*
X203993445Y-68123132D01*
X204174833Y-68250142D01*
X204258296Y-68289061D01*
X204375513Y-68343720D01*
X204375515Y-68343720D01*
X204375520Y-68343723D01*
X204589409Y-68401035D01*
X204746974Y-68414820D01*
X204809998Y-68420334D01*
X204810000Y-68420334D01*
X204810001Y-68420334D01*
X204826861Y-68418858D01*
X204931349Y-68409717D01*
X204999848Y-68423483D01*
X205050031Y-68472098D01*
X205065965Y-68540127D01*
X205042590Y-68605971D01*
X205029837Y-68620926D01*
X200287584Y-73363181D01*
X200226261Y-73396666D01*
X200199903Y-73399500D01*
X180407484Y-73399500D01*
X180340445Y-73379815D01*
X180294690Y-73327011D01*
X180293928Y-73325309D01*
X180285178Y-73305362D01*
X180285177Y-73305360D01*
X180153338Y-73103566D01*
X179990081Y-72926222D01*
X179990080Y-72926221D01*
X179990078Y-72926219D01*
X179990074Y-72926216D01*
X179799865Y-72778170D01*
X179799856Y-72778164D01*
X179587873Y-72663446D01*
X179587870Y-72663445D01*
X179587867Y-72663443D01*
X179587861Y-72663441D01*
X179587859Y-72663440D01*
X179359883Y-72585175D01*
X179201375Y-72558725D01*
X179122122Y-72545500D01*
X178881076Y-72545500D01*
X178821636Y-72555418D01*
X178643314Y-72585175D01*
X178415338Y-72663440D01*
X178415324Y-72663446D01*
X178203341Y-72778164D01*
X178203332Y-72778170D01*
X178013123Y-72926216D01*
X178013119Y-72926219D01*
X177849861Y-73103564D01*
X177849858Y-73103568D01*
X177718020Y-73305360D01*
X177621192Y-73526107D01*
X177562019Y-73759773D01*
X177562017Y-73759784D01*
X177542114Y-73999993D01*
X176321087Y-73999993D01*
X176301183Y-73759784D01*
X176301181Y-73759773D01*
X176298303Y-73748408D01*
X176242008Y-73526106D01*
X176145181Y-73305362D01*
X176013341Y-73103566D01*
X175850084Y-72926222D01*
X175850083Y-72926221D01*
X175850081Y-72926219D01*
X175850077Y-72926216D01*
X175659868Y-72778170D01*
X175659859Y-72778164D01*
X175447876Y-72663446D01*
X175447873Y-72663445D01*
X175447870Y-72663443D01*
X175447864Y-72663441D01*
X175447862Y-72663440D01*
X175219886Y-72585175D01*
X175061378Y-72558725D01*
X174982125Y-72545500D01*
X174741079Y-72545500D01*
X174681639Y-72555418D01*
X174503317Y-72585175D01*
X174275341Y-72663440D01*
X174275327Y-72663446D01*
X174063344Y-72778164D01*
X174063335Y-72778170D01*
X173873126Y-72926216D01*
X173873122Y-72926219D01*
X173709864Y-73103564D01*
X173709861Y-73103568D01*
X173578023Y-73305360D01*
X173481195Y-73526107D01*
X173422022Y-73759773D01*
X173422020Y-73759784D01*
X173402117Y-73999993D01*
X159500500Y-73999993D01*
X159500500Y-69859994D01*
X173402117Y-69859994D01*
X173402117Y-69860007D01*
X173422020Y-70100216D01*
X173422022Y-70100227D01*
X173481195Y-70333893D01*
X173578023Y-70554640D01*
X173709861Y-70756432D01*
X173709863Y-70756435D01*
X173848534Y-70907072D01*
X173873122Y-70933781D01*
X173873126Y-70933784D01*
X174063335Y-71081830D01*
X174063339Y-71081833D01*
X174063341Y-71081834D01*
X174063344Y-71081836D01*
X174153305Y-71130520D01*
X174275334Y-71196558D01*
X174503320Y-71274826D01*
X174741079Y-71314501D01*
X174741080Y-71314501D01*
X174982124Y-71314501D01*
X174982125Y-71314501D01*
X175219884Y-71274826D01*
X175447870Y-71196558D01*
X175659865Y-71081833D01*
X175850084Y-70933779D01*
X176013341Y-70756435D01*
X176145181Y-70554639D01*
X176242008Y-70333895D01*
X176301182Y-70100224D01*
X176321087Y-69860001D01*
X176321087Y-69859994D01*
X177542114Y-69859994D01*
X177542114Y-69860007D01*
X177562017Y-70100216D01*
X177562019Y-70100227D01*
X177621192Y-70333893D01*
X177718020Y-70554640D01*
X177849858Y-70756432D01*
X177849860Y-70756435D01*
X177988531Y-70907072D01*
X178013119Y-70933781D01*
X178013123Y-70933784D01*
X178203332Y-71081830D01*
X178203336Y-71081833D01*
X178203338Y-71081834D01*
X178203341Y-71081836D01*
X178293302Y-71130520D01*
X178415331Y-71196558D01*
X178643317Y-71274826D01*
X178881076Y-71314501D01*
X178881077Y-71314501D01*
X179122121Y-71314501D01*
X179122122Y-71314501D01*
X179359881Y-71274826D01*
X179587867Y-71196558D01*
X179799862Y-71081833D01*
X179990081Y-70933779D01*
X180153338Y-70756435D01*
X180285178Y-70554639D01*
X180382005Y-70333895D01*
X180441179Y-70100224D01*
X180461084Y-69860001D01*
X180461084Y-69859994D01*
X180441180Y-69619785D01*
X180441178Y-69619774D01*
X180382005Y-69386108D01*
X180330162Y-69267918D01*
X180285178Y-69165363D01*
X180153338Y-68963567D01*
X179990081Y-68786223D01*
X179990080Y-68786222D01*
X179990078Y-68786220D01*
X179990074Y-68786217D01*
X179799865Y-68638171D01*
X179799856Y-68638165D01*
X179587873Y-68523447D01*
X179587870Y-68523446D01*
X179587867Y-68523444D01*
X179587861Y-68523442D01*
X179587859Y-68523441D01*
X179359883Y-68445176D01*
X179169236Y-68413363D01*
X179122122Y-68405501D01*
X178881076Y-68405501D01*
X178855811Y-68409717D01*
X178643314Y-68445176D01*
X178415338Y-68523441D01*
X178415324Y-68523447D01*
X178203341Y-68638165D01*
X178203332Y-68638171D01*
X178013123Y-68786217D01*
X178013119Y-68786220D01*
X177849861Y-68963565D01*
X177849858Y-68963569D01*
X177718020Y-69165361D01*
X177621192Y-69386108D01*
X177562019Y-69619774D01*
X177562017Y-69619785D01*
X177542114Y-69859994D01*
X176321087Y-69859994D01*
X176301183Y-69619785D01*
X176301181Y-69619774D01*
X176242008Y-69386108D01*
X176190165Y-69267918D01*
X176145181Y-69165363D01*
X176013341Y-68963567D01*
X175850084Y-68786223D01*
X175850083Y-68786222D01*
X175850081Y-68786220D01*
X175850077Y-68786217D01*
X175659868Y-68638171D01*
X175659859Y-68638165D01*
X175447876Y-68523447D01*
X175447873Y-68523446D01*
X175447870Y-68523444D01*
X175447864Y-68523442D01*
X175447862Y-68523441D01*
X175219886Y-68445176D01*
X175029239Y-68413363D01*
X174982125Y-68405501D01*
X174741079Y-68405501D01*
X174715814Y-68409717D01*
X174503317Y-68445176D01*
X174275341Y-68523441D01*
X174275327Y-68523447D01*
X174063344Y-68638165D01*
X174063335Y-68638171D01*
X173873126Y-68786217D01*
X173873122Y-68786220D01*
X173709864Y-68963565D01*
X173709861Y-68963569D01*
X173578023Y-69165361D01*
X173481195Y-69386108D01*
X173422022Y-69619774D01*
X173422020Y-69619785D01*
X173402117Y-69859994D01*
X159500500Y-69859994D01*
X159500500Y-65575397D01*
X165315301Y-65575397D01*
X165315301Y-65864602D01*
X165315302Y-65864619D01*
X165353049Y-66151340D01*
X165353050Y-66151345D01*
X165353051Y-66151351D01*
X165364450Y-66193893D01*
X165427905Y-66430712D01*
X165538581Y-66697908D01*
X165538586Y-66697918D01*
X165683192Y-66948385D01*
X165859258Y-67177836D01*
X165859266Y-67177845D01*
X166063756Y-67382335D01*
X166063764Y-67382342D01*
X166293215Y-67558408D01*
X166543682Y-67703014D01*
X166543692Y-67703019D01*
X166691742Y-67764343D01*
X166810887Y-67813695D01*
X167090250Y-67888550D01*
X167376992Y-67926300D01*
X167376999Y-67926300D01*
X167666203Y-67926300D01*
X167666210Y-67926300D01*
X167952952Y-67888550D01*
X168232315Y-67813695D01*
X168499516Y-67703016D01*
X168749986Y-67558408D01*
X168979437Y-67382343D01*
X168979441Y-67382338D01*
X168979446Y-67382335D01*
X169183936Y-67177845D01*
X169183939Y-67177840D01*
X169183944Y-67177836D01*
X169360009Y-66948385D01*
X169504617Y-66697915D01*
X169507872Y-66690058D01*
X169538367Y-66616435D01*
X169615296Y-66430714D01*
X169690151Y-66151351D01*
X169727901Y-65864609D01*
X169727901Y-65719994D01*
X173402117Y-65719994D01*
X173402117Y-65720007D01*
X173422020Y-65960216D01*
X173422022Y-65960227D01*
X173481195Y-66193893D01*
X173578023Y-66414640D01*
X173643485Y-66514836D01*
X173709863Y-66616435D01*
X173763550Y-66674755D01*
X173873122Y-66793781D01*
X173873126Y-66793784D01*
X174063335Y-66941830D01*
X174063339Y-66941833D01*
X174063341Y-66941834D01*
X174063344Y-66941836D01*
X174186583Y-67008528D01*
X174275334Y-67056558D01*
X174503320Y-67134826D01*
X174741079Y-67174501D01*
X174741080Y-67174501D01*
X174982124Y-67174501D01*
X174982125Y-67174501D01*
X175219884Y-67134826D01*
X175447870Y-67056558D01*
X175659865Y-66941833D01*
X175850084Y-66793779D01*
X176013341Y-66616435D01*
X176145181Y-66414639D01*
X176242008Y-66193895D01*
X176301182Y-65960224D01*
X176301470Y-65956749D01*
X176321087Y-65720007D01*
X176321087Y-65719994D01*
X177542114Y-65719994D01*
X177542114Y-65720007D01*
X177562017Y-65960216D01*
X177562019Y-65960227D01*
X177621192Y-66193893D01*
X177718020Y-66414640D01*
X177783482Y-66514836D01*
X177849860Y-66616435D01*
X177903547Y-66674755D01*
X178013119Y-66793781D01*
X178013123Y-66793784D01*
X178203332Y-66941830D01*
X178203336Y-66941833D01*
X178203338Y-66941834D01*
X178203341Y-66941836D01*
X178326580Y-67008528D01*
X178415331Y-67056558D01*
X178643317Y-67134826D01*
X178881076Y-67174501D01*
X178881077Y-67174501D01*
X179122121Y-67174501D01*
X179122122Y-67174501D01*
X179359881Y-67134826D01*
X179587867Y-67056558D01*
X179799862Y-66941833D01*
X179990081Y-66793779D01*
X180153338Y-66616435D01*
X180285178Y-66414639D01*
X180382005Y-66193895D01*
X180441179Y-65960224D01*
X180441467Y-65956749D01*
X180461084Y-65720007D01*
X180461084Y-65719994D01*
X180441180Y-65479785D01*
X180441178Y-65479774D01*
X180382005Y-65246108D01*
X180285177Y-65025361D01*
X180153339Y-64823569D01*
X180153338Y-64823567D01*
X179990081Y-64646223D01*
X179990080Y-64646222D01*
X179990078Y-64646220D01*
X179990074Y-64646217D01*
X179799865Y-64498171D01*
X179799856Y-64498165D01*
X179587873Y-64383447D01*
X179587870Y-64383446D01*
X179587867Y-64383444D01*
X179587861Y-64383442D01*
X179587859Y-64383441D01*
X179359883Y-64305176D01*
X179201375Y-64278726D01*
X179122122Y-64265501D01*
X178881076Y-64265501D01*
X178821636Y-64275419D01*
X178643314Y-64305176D01*
X178415338Y-64383441D01*
X178415324Y-64383447D01*
X178203341Y-64498165D01*
X178203332Y-64498171D01*
X178013123Y-64646217D01*
X178013119Y-64646220D01*
X177849861Y-64823565D01*
X177849858Y-64823569D01*
X177718020Y-65025361D01*
X177621192Y-65246108D01*
X177562019Y-65479774D01*
X177562017Y-65479785D01*
X177542114Y-65719994D01*
X176321087Y-65719994D01*
X176301183Y-65479785D01*
X176301181Y-65479774D01*
X176242008Y-65246108D01*
X176145180Y-65025361D01*
X176013342Y-64823569D01*
X176013341Y-64823567D01*
X175850084Y-64646223D01*
X175850083Y-64646222D01*
X175850081Y-64646220D01*
X175850077Y-64646217D01*
X175659868Y-64498171D01*
X175659859Y-64498165D01*
X175447876Y-64383447D01*
X175447873Y-64383446D01*
X175447870Y-64383444D01*
X175447864Y-64383442D01*
X175447862Y-64383441D01*
X175219886Y-64305176D01*
X175061378Y-64278726D01*
X174982125Y-64265501D01*
X174741079Y-64265501D01*
X174681639Y-64275419D01*
X174503317Y-64305176D01*
X174275341Y-64383441D01*
X174275327Y-64383447D01*
X174063344Y-64498165D01*
X174063335Y-64498171D01*
X173873126Y-64646217D01*
X173873122Y-64646220D01*
X173709864Y-64823565D01*
X173709861Y-64823569D01*
X173578023Y-65025361D01*
X173481195Y-65246108D01*
X173422022Y-65479774D01*
X173422020Y-65479785D01*
X173402117Y-65719994D01*
X169727901Y-65719994D01*
X169727901Y-65575391D01*
X169690151Y-65288649D01*
X169615296Y-65009286D01*
X169538368Y-64823567D01*
X169504620Y-64742091D01*
X169504615Y-64742081D01*
X169360009Y-64491614D01*
X169216948Y-64305176D01*
X169183944Y-64262164D01*
X169183943Y-64262163D01*
X169183936Y-64262155D01*
X168979446Y-64057665D01*
X168979437Y-64057657D01*
X168749986Y-63881591D01*
X168499519Y-63736985D01*
X168499509Y-63736980D01*
X168232313Y-63626304D01*
X168092633Y-63588877D01*
X167952952Y-63551450D01*
X167952946Y-63551449D01*
X167952941Y-63551448D01*
X167666220Y-63513701D01*
X167666215Y-63513700D01*
X167666210Y-63513700D01*
X167376992Y-63513700D01*
X167376986Y-63513700D01*
X167376981Y-63513701D01*
X167090260Y-63551448D01*
X167090253Y-63551449D01*
X167090250Y-63551450D01*
X167031211Y-63567269D01*
X166810888Y-63626304D01*
X166543692Y-63736980D01*
X166543682Y-63736985D01*
X166293215Y-63881591D01*
X166063764Y-64057657D01*
X165859258Y-64262163D01*
X165683192Y-64491614D01*
X165538586Y-64742081D01*
X165538581Y-64742091D01*
X165427905Y-65009287D01*
X165353052Y-65288646D01*
X165353049Y-65288659D01*
X165315302Y-65575380D01*
X165315301Y-65575397D01*
X159500500Y-65575397D01*
X159500500Y-61579995D01*
X173402117Y-61579995D01*
X173402117Y-61580008D01*
X173422020Y-61820217D01*
X173422022Y-61820228D01*
X173481195Y-62053894D01*
X173578023Y-62274641D01*
X173709861Y-62476433D01*
X173709864Y-62476437D01*
X173873122Y-62653782D01*
X173873126Y-62653785D01*
X174063339Y-62801834D01*
X174063341Y-62801835D01*
X174063344Y-62801837D01*
X174186583Y-62868529D01*
X174275334Y-62916559D01*
X174503320Y-62994827D01*
X174741079Y-63034502D01*
X174741080Y-63034502D01*
X174982124Y-63034502D01*
X174982125Y-63034502D01*
X175219884Y-62994827D01*
X175447870Y-62916559D01*
X175659865Y-62801834D01*
X175850084Y-62653780D01*
X176013341Y-62476436D01*
X176145181Y-62274640D01*
X176242008Y-62053896D01*
X176301182Y-61820225D01*
X176321087Y-61580002D01*
X176321087Y-61579995D01*
X177542114Y-61579995D01*
X177542114Y-61580008D01*
X177562017Y-61820217D01*
X177562019Y-61820228D01*
X177621192Y-62053894D01*
X177718020Y-62274641D01*
X177849858Y-62476433D01*
X177849861Y-62476437D01*
X178013119Y-62653782D01*
X178013123Y-62653785D01*
X178203336Y-62801834D01*
X178203338Y-62801835D01*
X178203341Y-62801837D01*
X178326580Y-62868529D01*
X178415331Y-62916559D01*
X178643317Y-62994827D01*
X178881076Y-63034502D01*
X178881077Y-63034502D01*
X179122121Y-63034502D01*
X179122122Y-63034502D01*
X179359881Y-62994827D01*
X179587867Y-62916559D01*
X179799862Y-62801834D01*
X179990081Y-62653780D01*
X180153338Y-62476436D01*
X180285178Y-62274640D01*
X180382005Y-62053896D01*
X180441179Y-61820225D01*
X180461084Y-61580002D01*
X180461084Y-61579995D01*
X180441180Y-61339786D01*
X180441178Y-61339775D01*
X180382005Y-61106109D01*
X180285177Y-60885362D01*
X180153339Y-60683570D01*
X180153338Y-60683568D01*
X179990081Y-60506224D01*
X179990080Y-60506223D01*
X179990078Y-60506221D01*
X179990074Y-60506218D01*
X179799865Y-60358172D01*
X179799856Y-60358166D01*
X179587873Y-60243448D01*
X179587870Y-60243447D01*
X179587867Y-60243445D01*
X179587861Y-60243443D01*
X179587859Y-60243442D01*
X179359883Y-60165177D01*
X179201375Y-60138727D01*
X179122122Y-60125502D01*
X178881076Y-60125502D01*
X178821636Y-60135420D01*
X178643314Y-60165177D01*
X178415338Y-60243442D01*
X178415324Y-60243448D01*
X178203341Y-60358166D01*
X178203332Y-60358172D01*
X178013123Y-60506218D01*
X178013119Y-60506221D01*
X177849861Y-60683566D01*
X177849858Y-60683570D01*
X177718020Y-60885362D01*
X177621192Y-61106109D01*
X177562019Y-61339775D01*
X177562017Y-61339786D01*
X177542114Y-61579995D01*
X176321087Y-61579995D01*
X176301183Y-61339786D01*
X176301181Y-61339775D01*
X176242008Y-61106109D01*
X176145180Y-60885362D01*
X176013342Y-60683570D01*
X176013341Y-60683568D01*
X175850084Y-60506224D01*
X175850083Y-60506223D01*
X175850081Y-60506221D01*
X175850077Y-60506218D01*
X175659868Y-60358172D01*
X175659859Y-60358166D01*
X175447876Y-60243448D01*
X175447873Y-60243447D01*
X175447870Y-60243445D01*
X175447864Y-60243443D01*
X175447862Y-60243442D01*
X175219886Y-60165177D01*
X175061378Y-60138727D01*
X174982125Y-60125502D01*
X174741079Y-60125502D01*
X174681639Y-60135420D01*
X174503317Y-60165177D01*
X174275341Y-60243442D01*
X174275327Y-60243448D01*
X174063344Y-60358166D01*
X174063335Y-60358172D01*
X173873126Y-60506218D01*
X173873122Y-60506221D01*
X173709864Y-60683566D01*
X173709861Y-60683570D01*
X173578023Y-60885362D01*
X173481195Y-61106109D01*
X173422022Y-61339775D01*
X173422020Y-61339786D01*
X173402117Y-61579995D01*
X159500500Y-61579995D01*
X159500500Y-59499999D01*
X203783672Y-59499999D01*
X203783672Y-59500000D01*
X203802150Y-59711208D01*
X203802152Y-59711218D01*
X203857023Y-59916001D01*
X203857025Y-59916005D01*
X203857026Y-59916009D01*
X203876234Y-59957200D01*
X203946629Y-60108164D01*
X203946631Y-60108168D01*
X204068235Y-60281836D01*
X204068240Y-60281842D01*
X204218157Y-60431759D01*
X204218163Y-60431764D01*
X204391831Y-60553368D01*
X204391833Y-60553369D01*
X204391836Y-60553371D01*
X204583991Y-60642974D01*
X204788787Y-60697849D01*
X204957757Y-60712632D01*
X204999999Y-60716328D01*
X205000000Y-60716328D01*
X205000001Y-60716328D01*
X205035202Y-60713248D01*
X205211213Y-60697849D01*
X205416009Y-60642974D01*
X205608164Y-60553371D01*
X205781841Y-60431761D01*
X205931761Y-60281841D01*
X206053371Y-60108164D01*
X206142974Y-59916009D01*
X206143023Y-59915829D01*
X206150483Y-59887986D01*
X206186847Y-59828325D01*
X206249694Y-59797795D01*
X206319069Y-59806089D01*
X206372948Y-59850574D01*
X206390033Y-59887985D01*
X206397493Y-59915829D01*
X206397497Y-59915838D01*
X206487062Y-60107912D01*
X206487063Y-60107914D01*
X206524733Y-60161712D01*
X206524733Y-60161713D01*
X207091983Y-59594463D01*
X207113958Y-59676473D01*
X207174149Y-59780727D01*
X207259273Y-59865851D01*
X207363527Y-59926042D01*
X207445535Y-59948016D01*
X206878285Y-60515265D01*
X206932087Y-60552937D01*
X207124161Y-60642502D01*
X207124170Y-60642506D01*
X207328868Y-60697354D01*
X207328879Y-60697356D01*
X207539998Y-60715827D01*
X207540002Y-60715827D01*
X207751120Y-60697356D01*
X207751131Y-60697354D01*
X207955829Y-60642506D01*
X207955838Y-60642502D01*
X208147913Y-60552937D01*
X208147917Y-60552935D01*
X208201713Y-60515266D01*
X207634464Y-59948016D01*
X207716473Y-59926042D01*
X207820727Y-59865851D01*
X207905851Y-59780727D01*
X207966042Y-59676473D01*
X207988016Y-59594463D01*
X208555266Y-60161713D01*
X208592935Y-60107917D01*
X208592937Y-60107913D01*
X208682502Y-59915838D01*
X208682506Y-59915829D01*
X208737354Y-59711131D01*
X208737356Y-59711120D01*
X208755827Y-59500001D01*
X208755827Y-59499998D01*
X208737356Y-59288879D01*
X208737354Y-59288868D01*
X208682506Y-59084170D01*
X208682502Y-59084161D01*
X208592934Y-58892083D01*
X208555266Y-58838286D01*
X208555265Y-58838285D01*
X207988016Y-59405535D01*
X207966042Y-59323527D01*
X207905851Y-59219273D01*
X207820727Y-59134149D01*
X207716473Y-59073958D01*
X207634463Y-59051983D01*
X208201713Y-58484733D01*
X208147914Y-58447063D01*
X208147912Y-58447062D01*
X207955838Y-58357497D01*
X207955829Y-58357493D01*
X207751131Y-58302645D01*
X207751120Y-58302643D01*
X207540002Y-58284173D01*
X207539998Y-58284173D01*
X207328879Y-58302643D01*
X207328868Y-58302645D01*
X207124170Y-58357493D01*
X207124161Y-58357497D01*
X206932088Y-58447062D01*
X206878286Y-58484733D01*
X207445536Y-59051983D01*
X207363527Y-59073958D01*
X207259273Y-59134149D01*
X207174149Y-59219273D01*
X207113958Y-59323527D01*
X207091983Y-59405536D01*
X206524733Y-58838286D01*
X206487062Y-58892088D01*
X206397497Y-59084161D01*
X206397493Y-59084170D01*
X206390033Y-59112014D01*
X206353668Y-59171675D01*
X206290821Y-59202204D01*
X206221445Y-59193909D01*
X206167568Y-59149424D01*
X206150483Y-59112014D01*
X206142976Y-59083998D01*
X206142975Y-59083997D01*
X206142974Y-59083991D01*
X206053371Y-58891836D01*
X206053369Y-58891833D01*
X206053368Y-58891831D01*
X205931764Y-58718163D01*
X205931759Y-58718157D01*
X205781842Y-58568240D01*
X205781836Y-58568235D01*
X205608168Y-58446631D01*
X205608164Y-58446629D01*
X205416009Y-58357026D01*
X205416005Y-58357025D01*
X205416001Y-58357023D01*
X205211218Y-58302152D01*
X205211208Y-58302150D01*
X205000001Y-58283672D01*
X204999999Y-58283672D01*
X204788791Y-58302150D01*
X204788781Y-58302152D01*
X204583998Y-58357023D01*
X204583989Y-58357027D01*
X204391835Y-58446629D01*
X204391831Y-58446631D01*
X204218163Y-58568235D01*
X204218157Y-58568240D01*
X204068240Y-58718157D01*
X204068235Y-58718163D01*
X203946631Y-58891831D01*
X203946629Y-58891835D01*
X203857027Y-59083989D01*
X203857023Y-59083998D01*
X203802152Y-59288781D01*
X203802150Y-59288791D01*
X203783672Y-59499999D01*
X159500500Y-59499999D01*
X159500500Y-53624500D01*
X159520185Y-53557461D01*
X159572989Y-53511706D01*
X159624500Y-53500500D01*
X232875500Y-53500500D01*
X232942539Y-53520185D01*
G37*
%TD.AperFunction*%
%TD*%
M02*
