M48
; DRILL file {KiCad 8.0.7} date 2025-02-17T19:38:02-0500
; FORMAT={-:-/ absolute / inch / decimal}
; #@! TF.CreationDate,2025-02-17T19:38:02-05:00
; #@! TF.GenerationSoftware,Kicad,Pcbnew,8.0.7
; #@! TF.FileFunction,Plated,1,2,PTH
FMAT,2
INCH
; #@! TA.AperFunction,Plated,PTH,ComponentDrill
T1C0.0276
; #@! TA.AperFunction,Plated,PTH,ComponentDrill
T2C0.0307
; #@! TA.AperFunction,Plated,PTH,ComponentDrill
T3C0.0315
; #@! TA.AperFunction,Plated,PTH,ComponentDrill
T4C0.0360
; #@! TA.AperFunction,Plated,PTH,ComponentDrill
T5C0.0402
; #@! TA.AperFunction,Plated,PTH,ComponentDrill
T6C0.0550
%
G90
G05
T1
X7.0276Y-3.6614
X7.0276Y-3.7362
T2
X7.35Y-3.387
X7.35Y-3.6996
X7.45Y-3.387
X7.45Y-3.6996
X7.55Y-3.387
X7.55Y-3.6996
X7.65Y-3.387
X7.65Y-3.6996
T3
X8.8209Y-2.7564
X8.8209Y-2.8351
X8.8209Y-2.9139
X8.8209Y-2.9926
X8.8209Y-3.0714
X8.8209Y-3.1501
T4
X8.0709Y-2.3425
X8.089Y-3.5236
X8.1709Y-2.3425
X8.189Y-3.5236
T5
X7.5634Y-2.6437
X7.5634Y-3.1437
X7.6634Y-2.6437
X7.6634Y-3.1437
X7.7634Y-2.6437
X7.7634Y-3.1437
X7.8634Y-2.6437
X7.8634Y-3.1437
X7.9634Y-2.6437
X7.9634Y-3.1437
X8.0634Y-2.6437
X8.0634Y-3.1437
X8.1634Y-2.6437
X8.1634Y-3.1437
X8.2634Y-2.6437
X8.2634Y-3.1437
T6
X6.8843Y-2.4244
X6.8843Y-2.5874
X6.8843Y-2.7504
X6.8843Y-2.9134
X6.8843Y-3.0764
X6.8843Y-3.2394
X6.8843Y-3.4024
X7.0473Y-2.4244
X7.0473Y-2.5874
X7.0473Y-2.7504
X7.0473Y-2.9134
X7.0473Y-3.0764
X7.0473Y-3.2394
X7.0473Y-3.4024
M30
